<svg xmlns="http://www.w3.org/2000/svg" xmlns:xlink="http://www.w3.org/1999/xlink" version="1.1" class="marks" width="1482" height="269" viewBox="0 0 1482 269"><rect width="1482" height="269" fill="white"/><g fill="none" stroke-miterlimit="10" transform="translate(41,57)"><g class="mark-group role-frame root" role="graphics-object" aria-roledescription="group mark container"><g transform="translate(0,0)"><path class="background" aria-hidden="true" d="M0,0h0v0h0Z"/><g><g class="mark-group role-column-title column-title" role="graphics-object" aria-roledescription="group mark container"><g transform="translate(666,-31)"><path class="background" aria-hidden="true" d="M0,0h0v0h0Z"/><g><g class="mark-group role-title"><g transform="translate(0,-21)"><path class="background" aria-hidden="true" d="M0,0h0v0h0Z" pointer-events="none"/><g><g class="mark-text role-title-text" role="graphics-symbol" aria-roledescription="title" aria-label="Title text 'date (month)'" pointer-events="none"><text text-anchor="middle" transform="translate(0,9)" font-family="sans-serif" font-size="11px" font-weight="bold" fill="#000" opacity="1">date (month)</text></g></g><path class="foreground" aria-hidden="true" d="" pointer-events="none" display="none"/></g></g></g><path class="foreground" aria-hidden="true" d="" display="none"/></g></g><g class="mark-group role-row-header row_header" role="graphics-object" aria-roledescription="group mark container"><g transform="translate(-1,0)"><path class="background" aria-hidden="true" d="M0,0h0v200h0Z"/><g><g class="mark-group role-axis" role="graphics-symbol" aria-roledescription="axis" aria-label="Y-axis titled 'Count' for a linear scale with values from 0 to 90"><g transform="translate(0.5,0.5)"><path class="background" aria-hidden="true" d="M0,0h0v0h0Z" pointer-events="none"/><g><g class="mark-rule role-axis-tick" pointer-events="none"><line transform="translate(0,200)" x2="-5" y2="0" stroke="#888" stroke-width="1" opacity="1"/><line transform="translate(0,156)" x2="-5" y2="0" stroke="#888" stroke-width="1" opacity="1"/><line transform="translate(0,111)" x2="-5" y2="0" stroke="#888" stroke-width="1" opacity="1"/><line transform="translate(0,67)" x2="-5" y2="0" stroke="#888" stroke-width="1" opacity="1"/><line transform="translate(0,22)" x2="-5" y2="0" stroke="#888" stroke-width="1" opacity="1"/></g><g class="mark-text role-axis-label" pointer-events="none"><text text-anchor="end" transform="translate(-7,203)" font-family="sans-serif" font-size="10px" fill="#000" opacity="1">0</text><text text-anchor="end" transform="translate(-7,158.55555555555557)" font-family="sans-serif" font-size="10px" fill="#000" opacity="1">20</text><text text-anchor="end" transform="translate(-7,114.11111111111111)" font-family="sans-serif" font-size="10px" fill="#000" opacity="1">40</text><text text-anchor="end" transform="translate(-7,69.66666666666667)" font-family="sans-serif" font-size="10px" fill="#000" opacity="1">60</text><text text-anchor="end" transform="translate(-7,25.222222222222232)" font-family="sans-serif" font-size="10px" fill="#000" opacity="1">80</text></g><g class="mark-rule role-axis-domain" pointer-events="none"><line transform="translate(0,200)" x2="0" y2="-200" stroke="#888" stroke-width="1" opacity="1"/></g><g class="mark-text role-axis-title" pointer-events="none"><text text-anchor="middle" transform="translate(-23.724609375,100) rotate(-90) translate(0,-2)" font-family="sans-serif" font-size="11px" font-weight="bold" fill="#000" opacity="1">Count</text></g></g><path class="foreground" aria-hidden="true" d="" pointer-events="none" display="none"/></g></g></g><path class="foreground" aria-hidden="true" d="" display="none"/></g></g><g class="mark-group role-column-header column_header" role="graphics-object" aria-roledescription="group mark container"><g transform="translate(0,-1)"><path class="background" aria-hidden="true" d="M0,0h100v0h-100Z"/><g><g class="mark-group role-title"><g transform="translate(50,-20)"><path class="background" aria-hidden="true" d="M0,0h0v0h0Z" pointer-events="none"/><g><g class="mark-text role-title-text" role="graphics-symbol" aria-roledescription="title" aria-label="Title text 'Jan'" pointer-events="none"><text text-anchor="middle" transform="translate(0,8)" font-family="sans-serif" font-size="10px" fill="#000" opacity="1">Jan</text></g></g><path class="foreground" aria-hidden="true" d="" pointer-events="none" display="none"/></g></g></g><path class="foreground" aria-hidden="true" d="" display="none"/></g><g transform="translate(112,-1)"><path class="background" aria-hidden="true" d="M0,0h100v0h-100Z"/><g><g class="mark-group role-title"><g transform="translate(50,-20)"><path class="background" aria-hidden="true" d="M0,0h0v0h0Z" pointer-events="none"/><g><g class="mark-text role-title-text" role="graphics-symbol" aria-roledescription="title" aria-label="Title text 'Feb'" pointer-events="none"><text text-anchor="middle" transform="translate(0,8)" font-family="sans-serif" font-size="10px" fill="#000" opacity="1">Feb</text></g></g><path class="foreground" aria-hidden="true" d="" pointer-events="none" display="none"/></g></g></g><path class="foreground" aria-hidden="true" d="" display="none"/></g><g transform="translate(224,-1)"><path class="background" aria-hidden="true" d="M0,0h100v0h-100Z"/><g><g class="mark-group role-title"><g transform="translate(50,-20)"><path class="background" aria-hidden="true" d="M0,0h0v0h0Z" pointer-events="none"/><g><g class="mark-text role-title-text" role="graphics-symbol" aria-roledescription="title" aria-label="Title text 'Mar'" pointer-events="none"><text text-anchor="middle" transform="translate(0,8)" font-family="sans-serif" font-size="10px" fill="#000" opacity="1">Mar</text></g></g><path class="foreground" aria-hidden="true" d="" pointer-events="none" display="none"/></g></g></g><path class="foreground" aria-hidden="true" d="" display="none"/></g><g transform="translate(336,-1)"><path class="background" aria-hidden="true" d="M0,0h100v0h-100Z"/><g><g class="mark-group role-title"><g transform="translate(50,-20)"><path class="background" aria-hidden="true" d="M0,0h0v0h0Z" pointer-events="none"/><g><g class="mark-text role-title-text" role="graphics-symbol" aria-roledescription="title" aria-label="Title text 'Apr'" pointer-events="none"><text text-anchor="middle" transform="translate(0,8)" font-family="sans-serif" font-size="10px" fill="#000" opacity="1">Apr</text></g></g><path class="foreground" aria-hidden="true" d="" pointer-events="none" display="none"/></g></g></g><path class="foreground" aria-hidden="true" d="" display="none"/></g><g transform="translate(448,-1)"><path class="background" aria-hidden="true" d="M0,0h100v0h-100Z"/><g><g class="mark-group role-title"><g transform="translate(50,-20)"><path class="background" aria-hidden="true" d="M0,0h0v0h0Z" pointer-events="none"/><g><g class="mark-text role-title-text" role="graphics-symbol" aria-roledescription="title" aria-label="Title text 'May'" pointer-events="none"><text text-anchor="middle" transform="translate(0,8)" font-family="sans-serif" font-size="10px" fill="#000" opacity="1">May</text></g></g><path class="foreground" aria-hidden="true" d="" pointer-events="none" display="none"/></g></g></g><path class="foreground" aria-hidden="true" d="" display="none"/></g><g transform="translate(560,-1)"><path class="background" aria-hidden="true" d="M0,0h100v0h-100Z"/><g><g class="mark-group role-title"><g transform="translate(50,-20)"><path class="background" aria-hidden="true" d="M0,0h0v0h0Z" pointer-events="none"/><g><g class="mark-text role-title-text" role="graphics-symbol" aria-roledescription="title" aria-label="Title text 'Jun'" pointer-events="none"><text text-anchor="middle" transform="translate(0,8)" font-family="sans-serif" font-size="10px" fill="#000" opacity="1">Jun</text></g></g><path class="foreground" aria-hidden="true" d="" pointer-events="none" display="none"/></g></g></g><path class="foreground" aria-hidden="true" d="" display="none"/></g><g transform="translate(672,-1)"><path class="background" aria-hidden="true" d="M0,0h100v0h-100Z"/><g><g class="mark-group role-title"><g transform="translate(50,-20)"><path class="background" aria-hidden="true" d="M0,0h0v0h0Z" pointer-events="none"/><g><g class="mark-text role-title-text" role="graphics-symbol" aria-roledescription="title" aria-label="Title text 'Jul'" pointer-events="none"><text text-anchor="middle" transform="translate(0,8)" font-family="sans-serif" font-size="10px" fill="#000" opacity="1">Jul</text></g></g><path class="foreground" aria-hidden="true" d="" pointer-events="none" display="none"/></g></g></g><path class="foreground" aria-hidden="true" d="" display="none"/></g><g transform="translate(784,-1)"><path class="background" aria-hidden="true" d="M0,0h100v0h-100Z"/><g><g class="mark-group role-title"><g transform="translate(50,-20)"><path class="background" aria-hidden="true" d="M0,0h0v0h0Z" pointer-events="none"/><g><g class="mark-text role-title-text" role="graphics-symbol" aria-roledescription="title" aria-label="Title text 'Aug'" pointer-events="none"><text text-anchor="middle" transform="translate(0,8)" font-family="sans-serif" font-size="10px" fill="#000" opacity="1">Aug</text></g></g><path class="foreground" aria-hidden="true" d="" pointer-events="none" display="none"/></g></g></g><path class="foreground" aria-hidden="true" d="" display="none"/></g><g transform="translate(896,-1)"><path class="background" aria-hidden="true" d="M0,0h100v0h-100Z"/><g><g class="mark-group role-title"><g transform="translate(50,-20)"><path class="background" aria-hidden="true" d="M0,0h0v0h0Z" pointer-events="none"/><g><g class="mark-text role-title-text" role="graphics-symbol" aria-roledescription="title" aria-label="Title text 'Sep'" pointer-events="none"><text text-anchor="middle" transform="translate(0,8)" font-family="sans-serif" font-size="10px" fill="#000" opacity="1">Sep</text></g></g><path class="foreground" aria-hidden="true" d="" pointer-events="none" display="none"/></g></g></g><path class="foreground" aria-hidden="true" d="" display="none"/></g><g transform="translate(1008,-1)"><path class="background" aria-hidden="true" d="M0,0h100v0h-100Z"/><g><g class="mark-group role-title"><g transform="translate(50,-20)"><path class="background" aria-hidden="true" d="M0,0h0v0h0Z" pointer-events="none"/><g><g class="mark-text role-title-text" role="graphics-symbol" aria-roledescription="title" aria-label="Title text 'Oct'" pointer-events="none"><text text-anchor="middle" transform="translate(0,8)" font-family="sans-serif" font-size="10px" fill="#000" opacity="1">Oct</text></g></g><path class="foreground" aria-hidden="true" d="" pointer-events="none" display="none"/></g></g></g><path class="foreground" aria-hidden="true" d="" display="none"/></g><g transform="translate(1120,-1)"><path class="background" aria-hidden="true" d="M0,0h100v0h-100Z"/><g><g class="mark-group role-title"><g transform="translate(50,-20)"><path class="background" aria-hidden="true" d="M0,0h0v0h0Z" pointer-events="none"/><g><g class="mark-text role-title-text" role="graphics-symbol" aria-roledescription="title" aria-label="Title text 'Nov'" pointer-events="none"><text text-anchor="middle" transform="translate(0,8)" font-family="sans-serif" font-size="10px" fill="#000" opacity="1">Nov</text></g></g><path class="foreground" aria-hidden="true" d="" pointer-events="none" display="none"/></g></g></g><path class="foreground" aria-hidden="true" d="" display="none"/></g><g transform="translate(1232,-1)"><path class="background" aria-hidden="true" d="M0,0h100v0h-100Z"/><g><g class="mark-group role-title"><g transform="translate(50,-20)"><path class="background" aria-hidden="true" d="M0,0h0v0h0Z" pointer-events="none"/><g><g class="mark-text role-title-text" role="graphics-symbol" aria-roledescription="title" aria-label="Title text 'Dec'" pointer-events="none"><text text-anchor="middle" transform="translate(0,8)" font-family="sans-serif" font-size="10px" fill="#000" opacity="1">Dec</text></g></g><path class="foreground" aria-hidden="true" d="" pointer-events="none" display="none"/></g></g></g><path class="foreground" aria-hidden="true" d="" display="none"/></g></g><g class="mark-group role-column-footer column_footer" role="graphics-object" aria-roledescription="group mark container"><g transform="translate(0,201)"><path class="background" aria-hidden="true" d="M0,0h100v0h-100Z"/><g><g class="mark-group role-axis" role="graphics-symbol" aria-roledescription="axis" aria-label="X-axis for a discrete scale with 5 values: drizzle, fog, rain, snow, sun"><g transform="translate(0.5,0.5)"><path class="background" aria-hidden="true" d="M0,0h0v0h0Z" pointer-events="none"/><g><g class="mark-rule role-axis-tick" pointer-events="none"><line transform="translate(10,0)" x2="0" y2="5" stroke="#888" stroke-width="1" opacity="1"/><line transform="translate(30,0)" x2="0" y2="5" stroke="#888" stroke-width="1" opacity="1"/><line transform="translate(50,0)" x2="0" y2="5" stroke="#888" stroke-width="1" opacity="1"/><line transform="translate(70,0)" x2="0" y2="5" stroke="#888" stroke-width="1" opacity="1"/><line transform="translate(90,0)" x2="0" y2="5" stroke="#888" stroke-width="1" opacity="1"/></g><g class="mark-rule role-axis-domain" pointer-events="none"><line transform="translate(0,0)" x2="100" y2="0" stroke="#888" stroke-width="1" opacity="1"/></g></g><path class="foreground" aria-hidden="true" d="" pointer-events="none" display="none"/></g></g></g><path class="foreground" aria-hidden="true" d="" display="none"/></g><g transform="translate(112,201)"><path class="background" aria-hidden="true" d="M0,0h100v0h-100Z"/><g><g class="mark-group role-axis" role="graphics-symbol" aria-roledescription="axis" aria-label="X-axis for a discrete scale with 5 values: drizzle, fog, rain, snow, sun"><g transform="translate(0.5,0.5)"><path class="background" aria-hidden="true" d="M0,0h0v0h0Z" pointer-events="none"/><g><g class="mark-rule role-axis-tick" pointer-events="none"><line transform="translate(10,0)" x2="0" y2="5" stroke="#888" stroke-width="1" opacity="1"/><line transform="translate(30,0)" x2="0" y2="5" stroke="#888" stroke-width="1" opacity="1"/><line transform="translate(50,0)" x2="0" y2="5" stroke="#888" stroke-width="1" opacity="1"/><line transform="translate(70,0)" x2="0" y2="5" stroke="#888" stroke-width="1" opacity="1"/><line transform="translate(90,0)" x2="0" y2="5" stroke="#888" stroke-width="1" opacity="1"/></g><g class="mark-rule role-axis-domain" pointer-events="none"><line transform="translate(0,0)" x2="100" y2="0" stroke="#888" stroke-width="1" opacity="1"/></g></g><path class="foreground" aria-hidden="true" d="" pointer-events="none" display="none"/></g></g></g><path class="foreground" aria-hidden="true" d="" display="none"/></g><g transform="translate(224,201)"><path class="background" aria-hidden="true" d="M0,0h100v0h-100Z"/><g><g class="mark-group role-axis" role="graphics-symbol" aria-roledescription="axis" aria-label="X-axis for a discrete scale with 5 values: drizzle, fog, rain, snow, sun"><g transform="translate(0.5,0.5)"><path class="background" aria-hidden="true" d="M0,0h0v0h0Z" pointer-events="none"/><g><g class="mark-rule role-axis-tick" pointer-events="none"><line transform="translate(10,0)" x2="0" y2="5" stroke="#888" stroke-width="1" opacity="1"/><line transform="translate(30,0)" x2="0" y2="5" stroke="#888" stroke-width="1" opacity="1"/><line transform="translate(50,0)" x2="0" y2="5" stroke="#888" stroke-width="1" opacity="1"/><line transform="translate(70,0)" x2="0" y2="5" stroke="#888" stroke-width="1" opacity="1"/><line transform="translate(90,0)" x2="0" y2="5" stroke="#888" stroke-width="1" opacity="1"/></g><g class="mark-rule role-axis-domain" pointer-events="none"><line transform="translate(0,0)" x2="100" y2="0" stroke="#888" stroke-width="1" opacity="1"/></g></g><path class="foreground" aria-hidden="true" d="" pointer-events="none" display="none"/></g></g></g><path class="foreground" aria-hidden="true" d="" display="none"/></g><g transform="translate(336,201)"><path class="background" aria-hidden="true" d="M0,0h100v0h-100Z"/><g><g class="mark-group role-axis" role="graphics-symbol" aria-roledescription="axis" aria-label="X-axis for a discrete scale with 5 values: drizzle, fog, rain, snow, sun"><g transform="translate(0.5,0.5)"><path class="background" aria-hidden="true" d="M0,0h0v0h0Z" pointer-events="none"/><g><g class="mark-rule role-axis-tick" pointer-events="none"><line transform="translate(10,0)" x2="0" y2="5" stroke="#888" stroke-width="1" opacity="1"/><line transform="translate(30,0)" x2="0" y2="5" stroke="#888" stroke-width="1" opacity="1"/><line transform="translate(50,0)" x2="0" y2="5" stroke="#888" stroke-width="1" opacity="1"/><line transform="translate(70,0)" x2="0" y2="5" stroke="#888" stroke-width="1" opacity="1"/><line transform="translate(90,0)" x2="0" y2="5" stroke="#888" stroke-width="1" opacity="1"/></g><g class="mark-rule role-axis-domain" pointer-events="none"><line transform="translate(0,0)" x2="100" y2="0" stroke="#888" stroke-width="1" opacity="1"/></g></g><path class="foreground" aria-hidden="true" d="" pointer-events="none" display="none"/></g></g></g><path class="foreground" aria-hidden="true" d="" display="none"/></g><g transform="translate(448,201)"><path class="background" aria-hidden="true" d="M0,0h100v0h-100Z"/><g><g class="mark-group role-axis" role="graphics-symbol" aria-roledescription="axis" aria-label="X-axis for a discrete scale with 5 values: drizzle, fog, rain, snow, sun"><g transform="translate(0.5,0.5)"><path class="background" aria-hidden="true" d="M0,0h0v0h0Z" pointer-events="none"/><g><g class="mark-rule role-axis-tick" pointer-events="none"><line transform="translate(10,0)" x2="0" y2="5" stroke="#888" stroke-width="1" opacity="1"/><line transform="translate(30,0)" x2="0" y2="5" stroke="#888" stroke-width="1" opacity="1"/><line transform="translate(50,0)" x2="0" y2="5" stroke="#888" stroke-width="1" opacity="1"/><line transform="translate(70,0)" x2="0" y2="5" stroke="#888" stroke-width="1" opacity="1"/><line transform="translate(90,0)" x2="0" y2="5" stroke="#888" stroke-width="1" opacity="1"/></g><g class="mark-rule role-axis-domain" pointer-events="none"><line transform="translate(0,0)" x2="100" y2="0" stroke="#888" stroke-width="1" opacity="1"/></g></g><path class="foreground" aria-hidden="true" d="" pointer-events="none" display="none"/></g></g></g><path class="foreground" aria-hidden="true" d="" display="none"/></g><g transform="translate(560,201)"><path class="background" aria-hidden="true" d="M0,0h100v0h-100Z"/><g><g class="mark-group role-axis" role="graphics-symbol" aria-roledescription="axis" aria-label="X-axis for a discrete scale with 5 values: drizzle, fog, rain, snow, sun"><g transform="translate(0.5,0.5)"><path class="background" aria-hidden="true" d="M0,0h0v0h0Z" pointer-events="none"/><g><g class="mark-rule role-axis-tick" pointer-events="none"><line transform="translate(10,0)" x2="0" y2="5" stroke="#888" stroke-width="1" opacity="1"/><line transform="translate(30,0)" x2="0" y2="5" stroke="#888" stroke-width="1" opacity="1"/><line transform="translate(50,0)" x2="0" y2="5" stroke="#888" stroke-width="1" opacity="1"/><line transform="translate(70,0)" x2="0" y2="5" stroke="#888" stroke-width="1" opacity="1"/><line transform="translate(90,0)" x2="0" y2="5" stroke="#888" stroke-width="1" opacity="1"/></g><g class="mark-rule role-axis-domain" pointer-events="none"><line transform="translate(0,0)" x2="100" y2="0" stroke="#888" stroke-width="1" opacity="1"/></g></g><path class="foreground" aria-hidden="true" d="" pointer-events="none" display="none"/></g></g></g><path class="foreground" aria-hidden="true" d="" display="none"/></g><g transform="translate(672,201)"><path class="background" aria-hidden="true" d="M0,0h100v0h-100Z"/><g><g class="mark-group role-axis" role="graphics-symbol" aria-roledescription="axis" aria-label="X-axis for a discrete scale with 5 values: drizzle, fog, rain, snow, sun"><g transform="translate(0.5,0.5)"><path class="background" aria-hidden="true" d="M0,0h0v0h0Z" pointer-events="none"/><g><g class="mark-rule role-axis-tick" pointer-events="none"><line transform="translate(10,0)" x2="0" y2="5" stroke="#888" stroke-width="1" opacity="1"/><line transform="translate(30,0)" x2="0" y2="5" stroke="#888" stroke-width="1" opacity="1"/><line transform="translate(50,0)" x2="0" y2="5" stroke="#888" stroke-width="1" opacity="1"/><line transform="translate(70,0)" x2="0" y2="5" stroke="#888" stroke-width="1" opacity="1"/><line transform="translate(90,0)" x2="0" y2="5" stroke="#888" stroke-width="1" opacity="1"/></g><g class="mark-rule role-axis-domain" pointer-events="none"><line transform="translate(0,0)" x2="100" y2="0" stroke="#888" stroke-width="1" opacity="1"/></g></g><path class="foreground" aria-hidden="true" d="" pointer-events="none" display="none"/></g></g></g><path class="foreground" aria-hidden="true" d="" display="none"/></g><g transform="translate(784,201)"><path class="background" aria-hidden="true" d="M0,0h100v0h-100Z"/><g><g class="mark-group role-axis" role="graphics-symbol" aria-roledescription="axis" aria-label="X-axis for a discrete scale with 5 values: drizzle, fog, rain, snow, sun"><g transform="translate(0.5,0.5)"><path class="background" aria-hidden="true" d="M0,0h0v0h0Z" pointer-events="none"/><g><g class="mark-rule role-axis-tick" pointer-events="none"><line transform="translate(10,0)" x2="0" y2="5" stroke="#888" stroke-width="1" opacity="1"/><line transform="translate(30,0)" x2="0" y2="5" stroke="#888" stroke-width="1" opacity="1"/><line transform="translate(50,0)" x2="0" y2="5" stroke="#888" stroke-width="1" opacity="1"/><line transform="translate(70,0)" x2="0" y2="5" stroke="#888" stroke-width="1" opacity="1"/><line transform="translate(90,0)" x2="0" y2="5" stroke="#888" stroke-width="1" opacity="1"/></g><g class="mark-rule role-axis-domain" pointer-events="none"><line transform="translate(0,0)" x2="100" y2="0" stroke="#888" stroke-width="1" opacity="1"/></g></g><path class="foreground" aria-hidden="true" d="" pointer-events="none" display="none"/></g></g></g><path class="foreground" aria-hidden="true" d="" display="none"/></g><g transform="translate(896,201)"><path class="background" aria-hidden="true" d="M0,0h100v0h-100Z"/><g><g class="mark-group role-axis" role="graphics-symbol" aria-roledescription="axis" aria-label="X-axis for a discrete scale with 5 values: drizzle, fog, rain, snow, sun"><g transform="translate(0.5,0.5)"><path class="background" aria-hidden="true" d="M0,0h0v0h0Z" pointer-events="none"/><g><g class="mark-rule role-axis-tick" pointer-events="none"><line transform="translate(10,0)" x2="0" y2="5" stroke="#888" stroke-width="1" opacity="1"/><line transform="translate(30,0)" x2="0" y2="5" stroke="#888" stroke-width="1" opacity="1"/><line transform="translate(50,0)" x2="0" y2="5" stroke="#888" stroke-width="1" opacity="1"/><line transform="translate(70,0)" x2="0" y2="5" stroke="#888" stroke-width="1" opacity="1"/><line transform="translate(90,0)" x2="0" y2="5" stroke="#888" stroke-width="1" opacity="1"/></g><g class="mark-rule role-axis-domain" pointer-events="none"><line transform="translate(0,0)" x2="100" y2="0" stroke="#888" stroke-width="1" opacity="1"/></g></g><path class="foreground" aria-hidden="true" d="" pointer-events="none" display="none"/></g></g></g><path class="foreground" aria-hidden="true" d="" display="none"/></g><g transform="translate(1008,201)"><path class="background" aria-hidden="true" d="M0,0h100v0h-100Z"/><g><g class="mark-group role-axis" role="graphics-symbol" aria-roledescription="axis" aria-label="X-axis for a discrete scale with 5 values: drizzle, fog, rain, snow, sun"><g transform="translate(0.5,0.5)"><path class="background" aria-hidden="true" d="M0,0h0v0h0Z" pointer-events="none"/><g><g class="mark-rule role-axis-tick" pointer-events="none"><line transform="translate(10,0)" x2="0" y2="5" stroke="#888" stroke-width="1" opacity="1"/><line transform="translate(30,0)" x2="0" y2="5" stroke="#888" stroke-width="1" opacity="1"/><line transform="translate(50,0)" x2="0" y2="5" stroke="#888" stroke-width="1" opacity="1"/><line transform="translate(70,0)" x2="0" y2="5" stroke="#888" stroke-width="1" opacity="1"/><line transform="translate(90,0)" x2="0" y2="5" stroke="#888" stroke-width="1" opacity="1"/></g><g class="mark-rule role-axis-domain" pointer-events="none"><line transform="translate(0,0)" x2="100" y2="0" stroke="#888" stroke-width="1" opacity="1"/></g></g><path class="foreground" aria-hidden="true" d="" pointer-events="none" display="none"/></g></g></g><path class="foreground" aria-hidden="true" d="" display="none"/></g><g transform="translate(1120,201)"><path class="background" aria-hidden="true" d="M0,0h100v0h-100Z"/><g><g class="mark-group role-axis" role="graphics-symbol" aria-roledescription="axis" aria-label="X-axis for a discrete scale with 5 values: drizzle, fog, rain, snow, sun"><g transform="translate(0.5,0.5)"><path class="background" aria-hidden="true" d="M0,0h0v0h0Z" pointer-events="none"/><g><g class="mark-rule role-axis-tick" pointer-events="none"><line transform="translate(10,0)" x2="0" y2="5" stroke="#888" stroke-width="1" opacity="1"/><line transform="translate(30,0)" x2="0" y2="5" stroke="#888" stroke-width="1" opacity="1"/><line transform="translate(50,0)" x2="0" y2="5" stroke="#888" stroke-width="1" opacity="1"/><line transform="translate(70,0)" x2="0" y2="5" stroke="#888" stroke-width="1" opacity="1"/><line transform="translate(90,0)" x2="0" y2="5" stroke="#888" stroke-width="1" opacity="1"/></g><g class="mark-rule role-axis-domain" pointer-events="none"><line transform="translate(0,0)" x2="100" y2="0" stroke="#888" stroke-width="1" opacity="1"/></g></g><path class="foreground" aria-hidden="true" d="" pointer-events="none" display="none"/></g></g></g><path class="foreground" aria-hidden="true" d="" display="none"/></g><g transform="translate(1232,201)"><path class="background" aria-hidden="true" d="M0,0h100v0h-100Z"/><g><g class="mark-group role-axis" role="graphics-symbol" aria-roledescription="axis" aria-label="X-axis for a discrete scale with 5 values: drizzle, fog, rain, snow, sun"><g transform="translate(0.5,0.5)"><path class="background" aria-hidden="true" d="M0,0h0v0h0Z" pointer-events="none"/><g><g class="mark-rule role-axis-tick" pointer-events="none"><line transform="translate(10,0)" x2="0" y2="5" stroke="#888" stroke-width="1" opacity="1"/><line transform="translate(30,0)" x2="0" y2="5" stroke="#888" stroke-width="1" opacity="1"/><line transform="translate(50,0)" x2="0" y2="5" stroke="#888" stroke-width="1" opacity="1"/><line transform="translate(70,0)" x2="0" y2="5" stroke="#888" stroke-width="1" opacity="1"/><line transform="translate(90,0)" x2="0" y2="5" stroke="#888" stroke-width="1" opacity="1"/></g><g class="mark-rule role-axis-domain" pointer-events="none"><line transform="translate(0,0)" x2="100" y2="0" stroke="#888" stroke-width="1" opacity="1"/></g></g><path class="foreground" aria-hidden="true" d="" pointer-events="none" display="none"/></g></g></g><path class="foreground" aria-hidden="true" d="" display="none"/></g></g><g class="mark-group role-scope cell" role="graphics-object" aria-roledescription="group mark container"><g transform="translate(0,0)"><path class="background" aria-hidden="true" d="M0.5,0.5h100v200h-100Z"/><g><g class="mark-rect role-mark child_marks" role="graphics-object" aria-roledescription="rect mark container"><path aria-label="weather: drizzle; Count of Records: 10" role="graphics-symbol" aria-roledescription="bar" d="M1,177.77777777777777h18v22.22222222222223h-18Z" fill="#aec7e8"/><path aria-label="weather: rain; Count of Records: 61" role="graphics-symbol" aria-roledescription="bar" d="M41,64.44444444444444h18v135.55555555555554h-18Z" fill="#1f77b4"/><path aria-label="weather: sun; Count of Records: 28" role="graphics-symbol" aria-roledescription="bar" d="M81,137.77777777777777h18v62.22222222222223h-18Z" fill="#e7ba52"/><path aria-label="weather: snow; Count of Records: 8" role="graphics-symbol" aria-roledescription="bar" d="M61,182.22222222222223h18v17.77777777777777h-18Z" fill="#9467bd"/><path aria-label="weather: fog; Count of Records: 17" role="graphics-symbol" aria-roledescription="bar" d="M21,162.22222222222223h18v37.77777777777777h-18Z" fill="#c7c7c7"/></g></g><path class="foreground" aria-hidden="true" d="" display="none"/></g><g transform="translate(112,0)"><path class="background" aria-hidden="true" d="M0.5,0.5h100v200h-100Z"/><g><g class="mark-rect role-mark child_marks" role="graphics-object" aria-roledescription="rect mark container"><path aria-label="weather: rain; Count of Records: 75" role="graphics-symbol" aria-roledescription="bar" d="M41,33.33333333333333h18v166.66666666666669h-18Z" fill="#1f77b4"/><path aria-label="weather: sun; Count of Records: 27" role="graphics-symbol" aria-roledescription="bar" d="M81,140h18v60h-18Z" fill="#e7ba52"/><path aria-label="weather: drizzle; Count of Records: 4" role="graphics-symbol" aria-roledescription="bar" d="M1,191.11111111111111h18v8.888888888888886h-18Z" fill="#aec7e8"/><path aria-label="weather: snow; Count of Records: 4" role="graphics-symbol" aria-roledescription="bar" d="M61,191.11111111111111h18v8.888888888888886h-18Z" fill="#9467bd"/><path aria-label="weather: fog; Count of Records: 3" role="graphics-symbol" aria-roledescription="bar" d="M21,193.33333333333334h18v6.666666666666657h-18Z" fill="#c7c7c7"/></g></g><path class="foreground" aria-hidden="true" d="" display="none"/></g><g transform="translate(224,0)"><path class="background" aria-hidden="true" d="M0.5,0.5h100v200h-100Z"/><g><g class="mark-rect role-mark child_marks" role="graphics-object" aria-roledescription="rect mark container"><path aria-label="weather: sun; Count of Records: 36" role="graphics-symbol" aria-roledescription="bar" d="M81,120h18v80h-18Z" fill="#e7ba52"/><path aria-label="weather: rain; Count of Records: 73" role="graphics-symbol" aria-roledescription="bar" d="M41,37.77777777777778h18v162.22222222222223h-18Z" fill="#1f77b4"/><path aria-label="weather: snow; Count of Records: 6" role="graphics-symbol" aria-roledescription="bar" d="M61,186.66666666666666h18v13.333333333333343h-18Z" fill="#9467bd"/><path aria-label="weather: drizzle; Count of Records: 3" role="graphics-symbol" aria-roledescription="bar" d="M1,193.33333333333334h18v6.666666666666657h-18Z" fill="#aec7e8"/><path aria-label="weather: fog; Count of Records: 6" role="graphics-symbol" aria-roledescription="bar" d="M21,186.66666666666666h18v13.333333333333343h-18Z" fill="#c7c7c7"/></g></g><path class="foreground" aria-hidden="true" d="" display="none"/></g><g transform="translate(336,0)"><path class="background" aria-hidden="true" d="M0.5,0.5h100v200h-100Z"/><g><g class="mark-rect role-mark child_marks" role="graphics-object" aria-roledescription="rect mark container"><path aria-label="weather: rain; Count of Records: 61" role="graphics-symbol" aria-roledescription="bar" d="M41,64.44444444444444h18v135.55555555555554h-18Z" fill="#1f77b4"/><path aria-label="weather: sun; Count of Records: 52" role="graphics-symbol" aria-roledescription="bar" d="M81,84.44444444444446h18v115.55555555555554h-18Z" fill="#e7ba52"/><path aria-label="weather: snow; Count of Records: 1" role="graphics-symbol" aria-roledescription="bar" d="M61,197.77777777777777h18v2.2222222222222285h-18Z" fill="#9467bd"/><path aria-label="weather: drizzle; Count of Records: 3" role="graphics-symbol" aria-roledescription="bar" d="M1,193.33333333333334h18v6.666666666666657h-18Z" fill="#aec7e8"/><path aria-label="weather: fog; Count of Records: 3" role="graphics-symbol" aria-roledescription="bar" d="M21,193.33333333333334h18v6.666666666666657h-18Z" fill="#c7c7c7"/></g></g><path class="foreground" aria-hidden="true" d="" display="none"/></g><g transform="translate(448,0)"><path class="background" aria-hidden="true" d="M0.5,0.5h100v200h-100Z"/><g><g class="mark-rect role-mark child_marks" role="graphics-object" aria-roledescription="rect mark container"><path aria-label="weather: rain; Count of Records: 40" role="graphics-symbol" aria-roledescription="bar" d="M41,111.11111111111111h18v88.88888888888889h-18Z" fill="#1f77b4"/><path aria-label="weather: sun; Count of Records: 78" role="graphics-symbol" aria-roledescription="bar" d="M81,26.66666666666666h18v173.33333333333334h-18Z" fill="#e7ba52"/><path aria-label="weather: drizzle; Count of Records: 1" role="graphics-symbol" aria-roledescription="bar" d="M1,197.77777777777777h18v2.2222222222222285h-18Z" fill="#aec7e8"/><path aria-label="weather: fog; Count of Records: 5" role="graphics-symbol" aria-roledescription="bar" d="M21,188.88888888888889h18v11.111111111111114h-18Z" fill="#c7c7c7"/></g></g><path class="foreground" aria-hidden="true" d="" display="none"/></g><g transform="translate(560,0)"><path class="background" aria-hidden="true" d="M0.5,0.5h100v200h-100Z"/><g><g class="mark-rect role-mark child_marks" role="graphics-object" aria-roledescription="rect mark container"><path aria-label="weather: rain; Count of Records: 42" role="graphics-symbol" aria-roledescription="bar" d="M41,106.66666666666667h18v93.33333333333333h-18Z" fill="#1f77b4"/><path aria-label="weather: sun; Count of Records: 75" role="graphics-symbol" aria-roledescription="bar" d="M81,33.33333333333333h18v166.66666666666669h-18Z" fill="#e7ba52"/><path aria-label="weather: drizzle; Count of Records: 2" role="graphics-symbol" aria-roledescription="bar" d="M1,195.55555555555554h18v4.444444444444457h-18Z" fill="#aec7e8"/><path aria-label="weather: fog; Count of Records: 1" role="graphics-symbol" aria-roledescription="bar" d="M21,197.77777777777777h18v2.2222222222222285h-18Z" fill="#c7c7c7"/></g></g><path class="foreground" aria-hidden="true" d="" display="none"/></g><g transform="translate(672,0)"><path class="background" aria-hidden="true" d="M0.5,0.5h100v200h-100Z"/><g><g class="mark-rect role-mark child_marks" role="graphics-object" aria-roledescription="rect mark container"><path aria-label="weather: rain; Count of Records: 16" role="graphics-symbol" aria-roledescription="bar" d="M41,164.44444444444443h18v35.55555555555557h-18Z" fill="#1f77b4"/><path aria-label="weather: sun; Count of Records: 90" role="graphics-symbol" aria-roledescription="bar" d="M81,0h18v200h-18Z" fill="#e7ba52"/><path aria-label="weather: drizzle; Count of Records: 8" role="graphics-symbol" aria-roledescription="bar" d="M1,182.22222222222223h18v17.77777777777777h-18Z" fill="#aec7e8"/><path aria-label="weather: fog; Count of Records: 10" role="graphics-symbol" aria-roledescription="bar" d="M21,177.77777777777777h18v22.22222222222223h-18Z" fill="#c7c7c7"/></g></g><path class="foreground" aria-hidden="true" d="" display="none"/></g><g transform="translate(784,0)"><path class="background" aria-hidden="true" d="M0.5,0.5h100v200h-100Z"/><g><g class="mark-rect role-mark child_marks" role="graphics-object" aria-roledescription="rect mark container"><path aria-label="weather: drizzle; Count of Records: 8" role="graphics-symbol" aria-roledescription="bar" d="M1,182.22222222222223h18v17.77777777777777h-18Z" fill="#aec7e8"/><path aria-label="weather: sun; Count of Records: 86" role="graphics-symbol" aria-roledescription="bar" d="M81,8.888888888888879h18v191.11111111111111h-18Z" fill="#e7ba52"/><path aria-label="weather: rain; Count of Records: 24" role="graphics-symbol" aria-roledescription="bar" d="M41,146.66666666666669h18v53.333333333333314h-18Z" fill="#1f77b4"/><path aria-label="weather: fog; Count of Records: 6" role="graphics-symbol" aria-roledescription="bar" d="M21,186.66666666666666h18v13.333333333333343h-18Z" fill="#c7c7c7"/></g></g><path class="foreground" aria-hidden="true" d="" display="none"/></g><g transform="translate(896,0)"><path class="background" aria-hidden="true" d="M0.5,0.5h100v200h-100Z"/><g><g class="mark-rect role-mark child_marks" role="graphics-object" aria-roledescription="rect mark container"><path aria-label="weather: sun; Count of Records: 65" role="graphics-symbol" aria-roledescription="bar" d="M81,55.55555555555556h18v144.44444444444446h-18Z" fill="#e7ba52"/><path aria-label="weather: rain; Count of Records: 36" role="graphics-symbol" aria-roledescription="bar" d="M41,120h18v80h-18Z" fill="#1f77b4"/><path aria-label="weather: fog; Count of Records: 14" role="graphics-symbol" aria-roledescription="bar" d="M21,168.88888888888889h18v31.111111111111114h-18Z" fill="#c7c7c7"/><path aria-label="weather: drizzle; Count of Records: 5" role="graphics-symbol" aria-roledescription="bar" d="M1,188.88888888888889h18v11.111111111111114h-18Z" fill="#aec7e8"/></g></g><path class="foreground" aria-hidden="true" d="" display="none"/></g><g transform="translate(1008,0)"><path class="background" aria-hidden="true" d="M0.5,0.5h100v200h-100Z"/><g><g class="mark-rect role-mark child_marks" role="graphics-object" aria-roledescription="rect mark container"><path aria-label="weather: sun; Count of Records: 39" role="graphics-symbol" aria-roledescription="bar" d="M81,113.33333333333333h18v86.66666666666667h-18Z" fill="#e7ba52"/><path aria-label="weather: drizzle; Count of Records: 4" role="graphics-symbol" aria-roledescription="bar" d="M1,191.11111111111111h18v8.888888888888886h-18Z" fill="#aec7e8"/><path aria-label="weather: rain; Count of Records: 62" role="graphics-symbol" aria-roledescription="bar" d="M41,62.22222222222222h18v137.77777777777777h-18Z" fill="#1f77b4"/><path aria-label="weather: fog; Count of Records: 19" role="graphics-symbol" aria-roledescription="bar" d="M21,157.77777777777777h18v42.22222222222223h-18Z" fill="#c7c7c7"/></g></g><path class="foreground" aria-hidden="true" d="" display="none"/></g><g transform="translate(1120,0)"><path class="background" aria-hidden="true" d="M0.5,0.5h100v200h-100Z"/><g><g class="mark-rect role-mark child_marks" role="graphics-object" aria-roledescription="rect mark container"><path aria-label="weather: rain; Count of Records: 75" role="graphics-symbol" aria-roledescription="bar" d="M41,33.33333333333333h18v166.66666666666669h-18Z" fill="#1f77b4"/><path aria-label="weather: sun; Count of Records: 32" role="graphics-symbol" aria-roledescription="bar" d="M81,128.88888888888889h18v71.11111111111111h-18Z" fill="#e7ba52"/><path aria-label="weather: drizzle; Count of Records: 3" role="graphics-symbol" aria-roledescription="bar" d="M1,193.33333333333334h18v6.666666666666657h-18Z" fill="#aec7e8"/><path aria-label="weather: fog; Count of Records: 9" role="graphics-symbol" aria-roledescription="bar" d="M21,180h18v20h-18Z" fill="#c7c7c7"/><path aria-label="weather: snow; Count of Records: 1" role="graphics-symbol" aria-roledescription="bar" d="M61,197.77777777777777h18v2.2222222222222285h-18Z" fill="#9467bd"/></g></g><path class="foreground" aria-hidden="true" d="" display="none"/></g><g transform="translate(1232,0)"><path class="background" aria-hidden="true" d="M0.5,0.5h100v200h-100Z"/><g><g class="mark-rect role-mark child_marks" role="graphics-object" aria-roledescription="rect mark container"><path aria-label="weather: rain; Count of Records: 76" role="graphics-symbol" aria-roledescription="bar" d="M41,31.11111111111111h18v168.88888888888889h-18Z" fill="#1f77b4"/><path aria-label="weather: sun; Count of Records: 32" role="graphics-symbol" aria-roledescription="bar" d="M81,128.88888888888889h18v71.11111111111111h-18Z" fill="#e7ba52"/><path aria-label="weather: snow; Count of Records: 6" role="graphics-symbol" aria-roledescription="bar" d="M61,186.66666666666666h18v13.333333333333343h-18Z" fill="#9467bd"/><path aria-label="weather: drizzle; Count of Records: 2" role="graphics-symbol" aria-roledescription="bar" d="M1,195.55555555555554h18v4.444444444444457h-18Z" fill="#aec7e8"/><path aria-label="weather: fog; Count of Records: 8" role="graphics-symbol" aria-roledescription="bar" d="M21,182.22222222222223h18v17.77777777777777h-18Z" fill="#c7c7c7"/></g></g><path class="foreground" aria-hidden="true" d="" display="none"/></g></g><g class="mark-group role-legend" role="graphics-symbol" aria-roledescription="legend" aria-label="Symbol legend titled 'Weather type' for fill color with 5 values: sun, fog, drizzle, rain, snow"><g transform="translate(1351,0)"><path class="background" aria-hidden="true" d="M0,0h85v79h-85Z" pointer-events="none"/><g><g class="mark-group role-legend-entry"><g transform="translate(0,16)"><path class="background" aria-hidden="true" d="M0,0h0v0h0Z" pointer-events="none"/><g><g class="mark-group role-scope" role="graphics-object" aria-roledescription="group mark container"><g transform="translate(0,0)"><path class="background" aria-hidden="true" d="M0,0h48.666015625v11h-48.666015625Z" pointer-events="none" opacity="1"/><g><g class="mark-symbol role-legend-symbol" pointer-events="none"><path transform="translate(6,6)" d="M-5,-5h10v10h-10Z" fill="#e7ba52" stroke-width="1.5" opacity="1"/></g><g class="mark-text role-legend-label" pointer-events="none"><text text-anchor="start" transform="translate(16,9)" font-family="sans-serif" font-size="10px" fill="#000" opacity="1">sun</text></g></g><path class="foreground" aria-hidden="true" d="" pointer-events="none" display="none"/></g><g transform="translate(0,13)"><path class="background" aria-hidden="true" d="M0,0h48.666015625v11h-48.666015625Z" pointer-events="none" opacity="1"/><g><g class="mark-symbol role-legend-symbol" pointer-events="none"><path transform="translate(6,6)" d="M-5,-5h10v10h-10Z" fill="#c7c7c7" stroke-width="1.5" opacity="1"/></g><g class="mark-text role-legend-label" pointer-events="none"><text text-anchor="start" transform="translate(16,9)" font-family="sans-serif" font-size="10px" fill="#000" opacity="1">fog</text></g></g><path class="foreground" aria-hidden="true" d="" pointer-events="none" display="none"/></g><g transform="translate(0,26)"><path class="background" aria-hidden="true" d="M0,0h48.666015625v11h-48.666015625Z" pointer-events="none" opacity="1"/><g><g class="mark-symbol role-legend-symbol" pointer-events="none"><path transform="translate(6,6)" d="M-5,-5h10v10h-10Z" fill="#aec7e8" stroke-width="1.5" opacity="1"/></g><g class="mark-text role-legend-label" pointer-events="none"><text text-anchor="start" transform="translate(16,9)" font-family="sans-serif" font-size="10px" fill="#000" opacity="1">drizzle</text></g></g><path class="foreground" aria-hidden="true" d="" pointer-events="none" display="none"/></g><g transform="translate(0,39)"><path class="background" aria-hidden="true" d="M0,0h48.666015625v11h-48.666015625Z" pointer-events="none" opacity="1"/><g><g class="mark-symbol role-legend-symbol" pointer-events="none"><path transform="translate(6,6)" d="M-5,-5h10v10h-10Z" fill="#1f77b4" stroke-width="1.5" opacity="1"/></g><g class="mark-text role-legend-label" pointer-events="none"><text text-anchor="start" transform="translate(16,9)" font-family="sans-serif" font-size="10px" fill="#000" opacity="1">rain</text></g></g><path class="foreground" aria-hidden="true" d="" pointer-events="none" display="none"/></g><g transform="translate(0,52)"><path class="background" aria-hidden="true" d="M0,0h48.666015625v11h-48.666015625Z" pointer-events="none" opacity="1"/><g><g class="mark-symbol role-legend-symbol" pointer-events="none"><path transform="translate(6,6)" d="M-5,-5h10v10h-10Z" fill="#9467bd" stroke-width="1.5" opacity="1"/></g><g class="mark-text role-legend-label" pointer-events="none"><text text-anchor="start" transform="translate(16,9)" font-family="sans-serif" font-size="10px" fill="#000" opacity="1">snow</text></g></g><path class="foreground" aria-hidden="true" d="" pointer-events="none" display="none"/></g></g></g><path class="foreground" aria-hidden="true" d="" pointer-events="none" display="none"/></g></g><g class="mark-text role-legend-title" pointer-events="none"><text text-anchor="start" transform="translate(0,9)" font-family="sans-serif" font-size="11px" font-weight="bold" fill="#000" opacity="1">Weather type</text></g></g><path class="foreground" aria-hidden="true" d="" pointer-events="none" display="none"/></g></g></g><path class="foreground" aria-hidden="true" d="" display="none"/></g></g></g></svg>