<svg xmlns="http://www.w3.org/2000/svg" xmlns:xlink="http://www.w3.org/1999/xlink" version="1.1" class="marks" width="601" height="198" viewBox="0 0 601 198"><rect width="601" height="198" fill="white"/><g fill="none" stroke-miterlimit="10" transform="translate(56,10)"><g class="mark-group role-frame root" role="graphics-object" aria-roledescription="group mark container"><g transform="translate(0,0)"><path class="background" aria-hidden="true" d="M0.5,0.5h400v100h-400Z" stroke="#ddd"/><g><g class="mark-group role-axis" aria-hidden="true"><g transform="translate(0.5,100.5)"><path class="background" aria-hidden="true" d="M0,0h0v0h0Z" pointer-events="none"/><g><g class="mark-rule role-axis-grid" pointer-events="none"><line transform="translate(0,-100)" x2="0" y2="100" stroke="#ddd" stroke-width="1" opacity="1"/><line transform="translate(40,-100)" x2="0" y2="100" stroke="#ddd" stroke-width="1" opacity="1"/><line transform="translate(80,-100)" x2="0" y2="100" stroke="#ddd" stroke-width="1" opacity="1"/><line transform="translate(120,-100)" x2="0" y2="100" stroke="#ddd" stroke-width="1" opacity="1"/><line transform="translate(160,-100)" x2="0" y2="100" stroke="#ddd" stroke-width="1" opacity="1"/><line transform="translate(200,-100)" x2="0" y2="100" stroke="#ddd" stroke-width="1" opacity="1"/><line transform="translate(240,-100)" x2="0" y2="100" stroke="#ddd" stroke-width="1" opacity="1"/><line transform="translate(280,-100)" x2="0" y2="100" stroke="#ddd" stroke-width="1" opacity="1"/><line transform="translate(320,-100)" x2="0" y2="100" stroke="#ddd" stroke-width="1" opacity="1"/><line transform="translate(360,-100)" x2="0" y2="100" stroke="#ddd" stroke-width="1" opacity="1"/><line transform="translate(400,-100)" x2="0" y2="100" stroke="#ddd" stroke-width="1" opacity="1"/></g></g><path class="foreground" aria-hidden="true" d="" pointer-events="none" display="none"/></g></g><g class="mark-group role-axis" aria-hidden="true"><g transform="translate(0.5,0.5)"><path class="background" aria-hidden="true" d="M0,0h0v0h0Z" pointer-events="none"/><g><g class="mark-rule role-axis-grid" pointer-events="none"><line transform="translate(0,100)" x2="400" y2="0" stroke="#ddd" stroke-width="1" opacity="1"/><line transform="translate(0,50)" x2="400" y2="0" stroke="#ddd" stroke-width="1" opacity="1"/><line transform="translate(0,0)" x2="400" y2="0" stroke="#ddd" stroke-width="1" opacity="1"/></g></g><path class="foreground" aria-hidden="true" d="" pointer-events="none" display="none"/></g></g><g class="mark-group role-axis" role="graphics-symbol" aria-roledescription="axis" aria-label="X-axis titled 'IMDB Rating' for a linear scale with values from 0 to 10"><g transform="translate(0.5,100.5)"><path class="background" aria-hidden="true" d="M0,0h0v0h0Z" pointer-events="none"/><g><g class="mark-rule role-axis-tick" pointer-events="none"><line transform="translate(0,0)" x2="0" y2="5" stroke="#888" stroke-width="1" opacity="1"/><line transform="translate(40,0)" x2="0" y2="5" stroke="#888" stroke-width="1" opacity="1"/><line transform="translate(80,0)" x2="0" y2="5" stroke="#888" stroke-width="1" opacity="1"/><line transform="translate(120,0)" x2="0" y2="5" stroke="#888" stroke-width="1" opacity="1"/><line transform="translate(160,0)" x2="0" y2="5" stroke="#888" stroke-width="1" opacity="1"/><line transform="translate(200,0)" x2="0" y2="5" stroke="#888" stroke-width="1" opacity="1"/><line transform="translate(240,0)" x2="0" y2="5" stroke="#888" stroke-width="1" opacity="1"/><line transform="translate(280,0)" x2="0" y2="5" stroke="#888" stroke-width="1" opacity="1"/><line transform="translate(320,0)" x2="0" y2="5" stroke="#888" stroke-width="1" opacity="1"/><line transform="translate(360,0)" x2="0" y2="5" stroke="#888" stroke-width="1" opacity="1"/><line transform="translate(400,0)" x2="0" y2="5" stroke="#888" stroke-width="1" opacity="1"/></g><g class="mark-text role-axis-label" pointer-events="none"><text text-anchor="start" transform="translate(0,15)" font-family="sans-serif" font-size="10px" fill="#000" opacity="1">0</text><text text-anchor="middle" transform="translate(40,15)" font-family="sans-serif" font-size="10px" fill="#000" opacity="1">1</text><text text-anchor="middle" transform="translate(80,15)" font-family="sans-serif" font-size="10px" fill="#000" opacity="1">2</text><text text-anchor="middle" transform="translate(120,15)" font-family="sans-serif" font-size="10px" fill="#000" opacity="1">3</text><text text-anchor="middle" transform="translate(160,15)" font-family="sans-serif" font-size="10px" fill="#000" opacity="1">4</text><text text-anchor="middle" transform="translate(200,15)" font-family="sans-serif" font-size="10px" fill="#000" opacity="1">5</text><text text-anchor="middle" transform="translate(240,15)" font-family="sans-serif" font-size="10px" fill="#000" opacity="1">6</text><text text-anchor="middle" transform="translate(280,15)" font-family="sans-serif" font-size="10px" fill="#000" opacity="1">7</text><text text-anchor="middle" transform="translate(320,15)" font-family="sans-serif" font-size="10px" fill="#000" opacity="1">8</text><text text-anchor="middle" transform="translate(360,15)" font-family="sans-serif" font-size="10px" fill="#000" opacity="1">9</text><text text-anchor="end" transform="translate(400,15)" font-family="sans-serif" font-size="10px" fill="#000" opacity="1">10</text></g><g class="mark-rule role-axis-domain" pointer-events="none"><line transform="translate(0,0)" x2="400" y2="0" stroke="#888" stroke-width="1" opacity="1"/></g><g class="mark-text role-axis-title" pointer-events="none"><text text-anchor="middle" transform="translate(200,30)" font-family="sans-serif" font-size="11px" font-weight="bold" fill="#000" opacity="1">IMDB Rating</text></g></g><path class="foreground" aria-hidden="true" d="" pointer-events="none" display="none"/></g></g><g class="mark-group role-axis" role="graphics-symbol" aria-roledescription="axis" aria-label="Y-axis titled 'density' for a linear scale with values from 0 to 1,000"><g transform="translate(0.5,0.5)"><path class="background" aria-hidden="true" d="M0,0h0v0h0Z" pointer-events="none"/><g><g class="mark-rule role-axis-tick" pointer-events="none"><line transform="translate(0,100)" x2="-5" y2="0" stroke="#888" stroke-width="1" opacity="1"/><line transform="translate(0,50)" x2="-5" y2="0" stroke="#888" stroke-width="1" opacity="1"/><line transform="translate(0,0)" x2="-5" y2="0" stroke="#888" stroke-width="1" opacity="1"/></g><g class="mark-text role-axis-label" pointer-events="none"><text text-anchor="end" transform="translate(-7,103)" font-family="sans-serif" font-size="10px" fill="#000" opacity="1">0</text><text text-anchor="end" transform="translate(-7,53)" font-family="sans-serif" font-size="10px" fill="#000" opacity="1">500</text><text text-anchor="end" transform="translate(-7,3)" font-family="sans-serif" font-size="10px" fill="#000" opacity="1">1,000</text></g><g class="mark-rule role-axis-domain" pointer-events="none"><line transform="translate(0,100)" x2="0" y2="-100" stroke="#888" stroke-width="1" opacity="1"/></g><g class="mark-text role-axis-title" pointer-events="none"><text text-anchor="middle" transform="translate(-39.6279296875,50) rotate(-90) translate(0,-2)" font-family="sans-serif" font-size="11px" font-weight="bold" fill="#000" opacity="1">density</text></g></g><path class="foreground" aria-hidden="true" d="" pointer-events="none" display="none"/></g></g><g class="mark-group role-scope pathgroup" role="graphics-object" aria-roledescription="group mark container"><g transform="translate(0,0)"><path class="background" aria-hidden="true" d="M0,0h400v100h-400Z"/><g><g class="mark-area role-mark marks" role="graphics-object" aria-roledescription="area mark container"><path aria-label="IMDB Rating: 0; density: 43.8836508442; Major_Genre: null" role="graphics-symbol" aria-roledescription="area mark" d="M0,71.675L8,77.319L16,88.355L24,96.161L32,99.157L40,99.766L48,99.668L56,99.391L64,99.055L72,98.575L80,97.788L88,96.775L96,95.868L104,95.246L112,94.615L120,93.388L128,91.48L136,89.68L144,88.513L152,87.31L160,84.983L168,80.826L176,74.759L184,67.673L192,60.816L200,54.176L208,46.578L216,37.677L224,28.45L232,19.96L240,12.933L248,7.845L256,4.472L264,2.572L272,3.071L280,6.968L288,13.938L296,22.964L304,33.209L312,44.227L320,55.833L328,67.405L336,77.738L344,85.874L352,91.656L360,95.5L368,97.877L376,99.163L384,99.736L392,99.936L400,99.989L400,99.993L392,99.96L384,99.82L376,99.375L368,98.289L360,96.208L352,92.884L344,87.969L336,80.921L328,71.582L320,60.715L312,49.532L304,38.784L296,28.788L288,20.121L280,13.744L272,10.547L264,10.546L256,12.624L248,15.886L240,20.485L232,26.598L224,33.932L216,42.042L208,50.056L200,57.027L192,63.253L184,69.79L176,76.482L168,82.071L160,85.836L152,87.963L144,89.102L136,90.214L128,91.892L120,93.68L112,94.891L104,95.576L96,96.209L88,97.044L80,97.945L72,98.642L64,99.075L56,99.395L48,99.67L40,99.783L32,99.283L24,96.754L16,90.159L8,80.833L0,76.063Z" fill="#1f77b4"/></g></g><path class="foreground" aria-hidden="true" d="" display="none"/></g><g transform="translate(0,0)"><path class="background" aria-hidden="true" d="M0,0h400v100h-400Z"/><g><g class="mark-area role-mark marks" role="graphics-object" aria-roledescription="area mark container"><path aria-label="IMDB Rating: 0; density: 67.8201878098; Major_Genre: Drama" role="graphics-symbol" aria-roledescription="area mark" d="M0,89.628L8,91.694L16,95.736L24,98.596L32,99.698L40,99.933L48,99.904L56,99.787L64,99.645L72,99.504L80,99.327L88,99.1L96,98.9L104,98.763L112,98.573L120,98.155L128,97.501L136,96.857L144,96.416L152,95.96L160,94.987L168,93.093L176,90.322L184,87.195L192,84.165L200,81.078L208,77.536L216,73.645L224,69.809L232,65.942L240,61.761L248,57.574L256,53.915L264,51.089L272,49.693L280,50.564L288,53.71L296,58.306L304,63.916L312,70.552L320,77.647L328,84.102L336,89.199L344,92.931L352,95.635L360,97.572L368,98.842L376,99.542L384,99.855L392,99.965L400,99.994L400,99.998L392,99.99L384,99.959L376,99.874L368,99.695L360,99.355L352,98.769L344,97.89L336,96.75L328,95.347L320,93.562L312,91.389L304,89.029L296,86.674L288,84.386L280,82.164L272,80.15L264,78.703L256,78.094L248,78.289L240,79.068L232,80.173L224,81.422L216,82.84L208,84.511L200,86.335L192,88.241L184,90.381L176,92.743L168,94.868L160,96.279L152,96.972L144,97.302L136,97.639L128,98.16L120,98.739L112,99.123L104,99.249L96,99.274L88,99.36L80,99.517L72,99.668L64,99.78L56,99.869L48,99.94L40,99.968L32,99.894L24,99.514L16,98.524L8,97.125L0,96.41Z" fill="#ff9896"/></g></g><path class="foreground" aria-hidden="true" d="" display="none"/></g><g transform="translate(0,0)"><path class="background" aria-hidden="true" d="M0,0h400v100h-400Z"/><g><g class="mark-area role-mark marks" role="graphics-object" aria-roledescription="area mark container"><path aria-label="IMDB Rating: 0; density: 53.1923339713; Major_Genre: Comedy" role="graphics-symbol" aria-roledescription="area mark" d="M0,83.377L8,86.69L16,93.166L24,97.744L32,99.492L40,99.811L48,99.674L56,99.406L64,99.121L72,98.782L80,98.269L88,97.65L96,97.164L104,96.866L112,96.504L120,95.788L128,94.725L136,93.649L144,92.721L152,91.575L160,89.636L168,86.397L176,81.728L184,76.388L192,71.515L200,67.182L208,62.397L216,56.768L224,51.02L232,45.76L240,41.04L248,37.066L256,33.98L264,31.797L272,31.328L280,33.665L288,38.694L296,45.332L304,52.911L312,61.381L320,70.374L328,78.888L336,85.945L344,91.209L352,94.896L360,97.333L368,98.787L376,99.534L384,99.854L392,99.965L400,99.994L400,99.994L392,99.965L384,99.855L376,99.54L368,98.825L360,97.495L352,95.387L344,92.373L336,88.266L328,82.831L320,76.063L312,68.658L304,61.831L296,56.263L288,51.895L280,49.064L272,48.547L264,50.289L256,53.367L248,57.143L240,61.371L232,65.612L224,69.575L216,73.465L208,77.322L200,80.814L192,83.932L184,87.059L176,90.271L168,93.081L160,94.985L152,95.956L144,96.398L136,96.802L128,97.392L120,98.01L112,98.415L104,98.573L96,98.65L88,98.838L80,99.139L72,99.416L64,99.618L56,99.782L48,99.903L40,99.929L32,99.672L24,98.47L16,95.353L8,90.949L0,88.697Z" fill="#2ca02c"/></g></g><path class="foreground" aria-hidden="true" d="" display="none"/></g><g transform="translate(0,0)"><path class="background" aria-hidden="true" d="M0,0h400v100h-400Z"/><g><g class="mark-area role-mark marks" role="graphics-object" aria-roledescription="area mark container"><path aria-label="IMDB Rating: 0; density: 3.98942368975; Major_Genre: Musical" role="graphics-symbol" aria-roledescription="area mark" d="M0,97.739L8,98.19L16,99.071L24,99.694L32,99.932L40,99.973L48,99.94L56,99.871L64,99.789L72,99.706L80,99.617L88,99.551L96,99.553L104,99.605L112,99.585L120,99.37L128,99.011L136,98.739L144,98.711L152,98.779L160,98.585L168,97.832L176,96.482L184,94.885L192,93.585L200,92.72L208,91.843L216,90.534L224,88.799L232,86.918L240,85.265L248,84.092L256,83.402L264,83.298L272,84.048L280,85.596L288,87.534L296,89.508L304,91.354L312,93.083L320,94.737L328,96.227L336,97.455L344,98.387L352,99.031L360,99.45L368,99.718L376,99.878L384,99.959L392,99.99L400,99.998L400,99.998L392,99.99L384,99.959L376,99.878L368,99.719L360,99.459L352,99.069L344,98.503L336,97.743L328,96.85L320,95.859L312,94.664L304,93.148L296,91.378L288,89.55L280,87.773L272,86.223L264,85.258L256,85.028L248,85.379L240,86.23L232,87.589L224,89.248L216,90.844L208,92.073L200,92.915L192,93.806L184,95.157L176,96.748L168,98.04L160,98.784L152,99.057L144,99.072L136,99.078L128,99.232L120,99.468L112,99.617L104,99.629L96,99.612L88,99.676L80,99.805L72,99.919L64,99.977L56,99.995L48,99.999L40,99.993L32,99.947L24,99.748L16,99.235L8,98.509L0,98.138Z" fill="#c5b0d5"/></g></g><path class="foreground" aria-hidden="true" d="" display="none"/></g><g transform="translate(0,0)"><path class="background" aria-hidden="true" d="M0,0h400v100h-400Z"/><g><g class="mark-area role-mark marks" role="graphics-object" aria-roledescription="area mark container"><path aria-label="IMDB Rating: 0; density: 7.97884560803; Major_Genre: Thriller/Suspense" role="graphics-symbol" aria-roledescription="area mark" d="M0,99.069L8,99.255L16,99.617L24,99.874L32,99.973L40,99.996L48,100L56,100L64,99.999L72,99.991L80,99.966L88,99.915L96,99.853L104,99.802L112,99.745L120,99.662L128,99.589L136,99.565L144,99.557L152,99.503L160,99.355L168,99.01L176,98.346L184,97.468L192,96.715L200,96.242L208,95.827L216,95.18L224,94.095L232,92.514L240,90.769L248,89.462L256,88.997L264,89.38L272,90.258L280,91.201L288,92.134L296,93.238L304,94.454L312,95.535L320,96.436L328,97.272L336,98.062L344,98.704L352,99.159L360,99.486L368,99.724L376,99.879L384,99.959L392,99.99L400,99.998L400,100L392,99.999L384,99.996L376,99.982L368,99.944L360,99.881L352,99.804L344,99.681L336,99.46L328,99.191L320,99.007L312,98.955L304,98.988L296,99.038L288,99.012L280,98.84L272,98.602L264,98.514L256,98.701L248,99.013L240,99.196L232,99.224L224,99.282L216,99.453L208,99.635L200,99.731L192,99.769L184,99.81L176,99.875L168,99.942L160,99.981L152,99.996L144,99.999L136,100L128,100L120,100L112,100L104,100L96,100L88,100L80,100L72,100L64,100L56,100L48,100L40,99.999L32,99.996L24,99.982L16,99.945L8,99.894L0,99.867Z" fill="#c49c94"/></g></g><path class="foreground" aria-hidden="true" d="" display="none"/></g><g transform="translate(0,0)"><path class="background" aria-hidden="true" d="M0,0h400v100h-400Z"/><g><g class="mark-area role-mark marks" role="graphics-object" aria-roledescription="area mark container"><path aria-label="IMDB Rating: 0; density: 30.5855748308; Major_Genre: Adventure" role="graphics-symbol" aria-roledescription="area mark" d="M0,79.787L8,83.815L16,91.689L24,97.258L32,99.389L40,99.797L48,99.672L56,99.397L64,99.087L72,98.692L80,98.102L88,97.409L96,96.872L104,96.555L112,96.191L120,95.404L128,94.147L136,92.839L144,91.771L152,90.545L160,88.397L168,84.73L176,79.494L184,73.59L192,68.274L200,63.589L208,58.295L216,51.743L224,44.664L232,37.973L240,32.109L248,27.456L256,24.151L264,22.158L272,22.127L280,24.897L288,30.329L296,37.652L304,46.293L312,55.898L320,65.927L328,75.462L336,83.501L344,89.547L352,93.799L360,96.692L368,98.498L376,99.442L384,99.834L392,99.962L400,99.994L400,99.994L392,99.965L384,99.854L376,99.534L368,98.786L360,97.328L352,94.87L344,91.108L336,85.663L328,78.293L320,69.399L312,60.102L304,51.499L296,43.95L288,37.413L280,32.45L272,30.151L264,30.732L256,33.115L248,36.384L240,40.437L232,45.177L224,50.519L216,56.418L208,62.125L200,66.851L192,71.117L184,76.048L176,81.538L168,86.328L160,89.62L152,91.573L144,92.721L136,93.649L128,94.725L120,95.788L112,96.504L104,96.866L96,97.164L88,97.65L80,98.269L72,98.782L64,99.121L56,99.406L48,99.674L40,99.809L32,99.476L24,97.672L16,92.947L8,86.264L0,82.845Z" fill="#ff7f0e"/></g></g><path class="foreground" aria-hidden="true" d="" display="none"/></g><g transform="translate(0,0)"><path class="background" aria-hidden="true" d="M0,0h400v100h-400Z"/><g><g class="mark-area role-mark marks" role="graphics-object" aria-roledescription="area mark container"><path aria-label="IMDB Rating: 0; density: 37.2346128375; Major_Genre: Action" role="graphics-symbol" aria-roledescription="area mark" d="M0,76.063L8,80.833L16,90.159L24,96.754L32,99.283L40,99.783L48,99.67L56,99.395L64,99.075L72,98.642L80,97.945L88,97.044L96,96.209L104,95.576L112,94.891L120,93.68L128,91.892L136,90.214L144,89.102L152,87.963L160,85.836L168,82.071L176,76.482L184,69.79L192,63.253L200,57.027L208,50.056L216,42.042L224,33.932L232,26.598L240,20.485L248,15.886L256,12.624L264,10.546L272,10.547L280,13.744L288,20.121L296,28.788L304,38.784L312,49.532L320,60.715L328,71.582L336,80.921L344,87.969L352,92.884L360,96.208L368,98.289L376,99.375L384,99.82L392,99.96L400,99.993L400,99.994L392,99.962L384,99.834L376,99.442L368,98.498L360,96.692L352,93.799L344,89.547L336,83.501L328,75.462L320,65.927L312,55.898L304,46.293L296,37.652L288,30.329L280,24.897L272,22.127L264,22.158L256,24.151L248,27.456L240,32.109L232,37.973L224,44.664L216,51.743L208,58.295L200,63.589L192,68.274L184,73.59L176,79.494L168,84.73L160,88.397L152,90.545L144,91.771L136,92.839L128,94.147L120,95.404L112,96.191L104,96.555L96,96.872L88,97.409L80,98.102L72,98.692L64,99.087L56,99.397L48,99.672L40,99.797L32,99.389L24,97.258L16,91.689L8,83.815L0,79.787Z" fill="#aec7e8"/></g></g><path class="foreground" aria-hidden="true" d="" display="none"/></g><g transform="translate(0,0)"><path class="background" aria-hidden="true" d="M0,0h400v100h-400Z"/><g><g class="mark-area role-mark marks" role="graphics-object" aria-roledescription="area mark container"><path aria-label="IMDB Rating: 0; density: 9.30865320937; Major_Genre: Romantic Comedy" role="graphics-symbol" aria-roledescription="area mark" d="M0,98.138L8,98.509L16,99.235L24,99.748L32,99.947L40,99.993L48,99.999L56,99.995L64,99.977L72,99.919L80,99.805L88,99.676L96,99.612L104,99.629L112,99.617L120,99.468L128,99.232L136,99.078L144,99.072L152,99.057L160,98.784L168,98.04L176,96.748L184,95.157L192,93.806L200,92.915L208,92.073L216,90.844L224,89.248L232,87.589L240,86.23L248,85.379L256,85.028L264,85.258L272,86.223L280,87.773L288,89.55L296,91.378L304,93.148L312,94.664L320,95.859L328,96.85L336,97.743L344,98.503L352,99.069L360,99.459L368,99.719L376,99.878L384,99.959L392,99.99L400,99.998L400,99.998L392,99.99L384,99.959L376,99.879L368,99.724L360,99.486L352,99.159L344,98.704L336,98.062L328,97.272L320,96.436L312,95.535L304,94.454L296,93.238L288,92.134L280,91.201L272,90.258L264,89.38L256,88.997L248,89.462L240,90.769L232,92.514L224,94.095L216,95.18L208,95.827L200,96.242L192,96.715L184,97.468L176,98.346L168,99.01L160,99.355L152,99.503L144,99.557L136,99.565L128,99.589L120,99.662L112,99.745L104,99.802L96,99.853L88,99.915L80,99.966L72,99.991L64,99.999L56,100L48,100L40,99.996L32,99.973L24,99.874L16,99.617L8,99.255L0,99.069Z" fill="#8c564b"/></g></g><path class="foreground" aria-hidden="true" d="" display="none"/></g><g transform="translate(0,0)"><path class="background" aria-hidden="true" d="M0,0h400v100h-400Z"/><g><g class="mark-area role-mark marks" role="graphics-object" aria-roledescription="area mark container"><path aria-label="IMDB Rating: 0; density: 13.2980760134; Major_Genre: Horror" role="graphics-symbol" aria-roledescription="area mark" d="M0,96.41L8,97.125L16,98.524L24,99.514L32,99.894L40,99.968L48,99.94L56,99.869L64,99.78L72,99.668L80,99.517L88,99.36L96,99.274L104,99.249L112,99.123L120,98.739L128,98.16L136,97.639L144,97.302L152,96.972L160,96.279L168,94.868L176,92.743L184,90.381L192,88.241L200,86.335L208,84.511L216,82.84L224,81.422L232,80.173L240,79.068L248,78.289L256,78.094L264,78.703L272,80.15L280,82.164L288,84.386L296,86.674L304,89.029L312,91.389L320,93.562L328,95.347L336,96.75L344,97.89L352,98.769L360,99.355L368,99.695L376,99.874L384,99.959L392,99.99L400,99.998L400,99.998L392,99.99L384,99.959L376,99.878L368,99.718L360,99.45L352,99.031L344,98.387L336,97.455L328,96.227L320,94.737L312,93.083L304,91.354L296,89.508L288,87.534L280,85.596L272,84.048L264,83.298L256,83.402L248,84.092L240,85.265L232,86.918L224,88.799L216,90.534L208,91.843L200,92.72L192,93.585L184,94.885L176,96.482L168,97.832L160,98.585L152,98.779L144,98.711L136,98.739L128,99.011L120,99.37L112,99.585L104,99.605L96,99.553L88,99.551L80,99.617L72,99.706L64,99.789L56,99.871L48,99.94L40,99.973L32,99.932L24,99.694L16,99.071L8,98.19L0,97.739Z" fill="#9467bd"/></g></g><path class="foreground" aria-hidden="true" d="" display="none"/></g><g transform="translate(0,0)"><path class="background" aria-hidden="true" d="M0,0h400v100h-400Z"/><g><g class="mark-area role-mark marks" role="graphics-object" aria-roledescription="area mark container"><path aria-label="IMDB Rating: 0; density: 1.32980760134; Major_Genre: Western" role="graphics-symbol" aria-roledescription="area mark" d="M0,99.867L8,99.894L16,99.945L24,99.982L32,99.996L40,99.999L48,100L56,100L64,100L72,100L80,100L88,100L96,100L104,100L112,100L120,100L128,100L136,100L144,99.999L152,99.996L160,99.981L168,99.942L176,99.875L184,99.81L192,99.769L200,99.731L208,99.635L216,99.453L224,99.282L232,99.224L240,99.196L248,99.013L256,98.701L264,98.514L272,98.602L280,98.84L288,99.012L296,99.038L304,98.988L312,98.955L320,99.007L328,99.191L336,99.46L344,99.681L352,99.804L360,99.881L368,99.944L376,99.982L384,99.996L392,99.999L400,100L400,100L392,100L384,100L376,100L368,100L360,100L352,100L344,100L336,100L328,100L320,100L312,100L304,100L296,100L288,100L280,100L272,100L264,100L256,100L248,100L240,100L232,100L224,100L216,100L208,100L200,100L192,100L184,100L176,100L168,100L160,100L152,100L144,100L136,100L128,100L120,100L112,100L104,100L96,100L88,100L80,100L72,100L64,100L56,100L48,100L40,100L32,100L24,100L16,100L8,100L0,100Z" fill="#e377c2"/></g></g><path class="foreground" aria-hidden="true" d="" display="none"/></g><g transform="translate(0,0)"><path class="background" aria-hidden="true" d="M0,0h400v100h-400Z"/><g><g class="mark-area role-mark marks" role="graphics-object" aria-roledescription="area mark container"><path aria-label="IMDB Rating: 0; density: 7.97884560803; Major_Genre: Documentary" role="graphics-symbol" aria-roledescription="area mark" d="M0,88.83L8,91.055L16,95.408L24,98.488L32,99.676L40,99.929L48,99.903L56,99.782L64,99.618L72,99.416L80,99.139L88,98.838L96,98.65L104,98.573L112,98.415L120,98.01L128,97.392L136,96.802L144,96.398L152,95.956L160,94.986L168,93.09L176,90.304L184,87.14L192,84.058L200,80.942L208,77.412L216,73.536L224,69.683L232,65.794L240,61.603L248,57.357L256,53.507L264,50.352L272,48.566L280,49.068L288,51.896L296,56.264L304,61.84L312,68.691L320,76.144L328,82.957L336,88.392L344,92.454L352,95.42L360,97.503L368,98.827L376,99.54L384,99.855L392,99.965L400,99.994L400,99.994L392,99.965L384,99.855L376,99.542L368,98.842L360,97.572L352,95.635L344,92.931L336,89.199L328,84.102L320,77.647L312,70.552L304,63.916L296,58.306L288,53.71L280,50.564L272,49.693L264,51.089L256,53.915L248,57.574L240,61.761L232,65.942L224,69.809L216,73.645L208,77.536L200,81.078L192,84.165L184,87.195L176,90.322L168,93.093L160,94.987L152,95.96L144,96.416L136,96.857L128,97.501L120,98.155L112,98.573L104,98.763L96,98.9L88,99.1L80,99.327L72,99.504L64,99.645L56,99.787L48,99.904L40,99.933L32,99.698L24,98.596L16,95.736L8,91.694L0,89.628Z" fill="#d62728"/></g></g><path class="foreground" aria-hidden="true" d="" display="none"/></g><g transform="translate(0,0)"><path class="background" aria-hidden="true" d="M0,0h400v100h-400Z"/><g><g class="mark-area role-mark marks" role="graphics-object" aria-roledescription="area mark container"><path aria-label="IMDB Rating: 0; density: 5.31923040535; Major_Genre: Black Comedy" role="graphics-symbol" aria-roledescription="area mark" d="M0,82.845L8,86.264L16,92.947L24,97.672L32,99.476L40,99.809L48,99.674L56,99.406L64,99.121L72,98.782L80,98.269L88,97.65L96,97.164L104,96.866L112,96.504L120,95.788L128,94.725L136,93.649L144,92.721L152,91.573L160,89.62L168,86.328L176,81.538L184,76.048L192,71.117L200,66.851L208,62.125L216,56.418L224,50.519L232,45.177L240,40.437L248,36.384L256,33.115L264,30.732L272,30.151L280,32.45L288,37.413L296,43.95L304,51.499L312,60.102L320,69.399L328,78.293L336,85.663L344,91.108L352,94.87L360,97.328L368,98.786L376,99.534L384,99.854L392,99.965L400,99.994L400,99.994L392,99.965L384,99.854L376,99.534L368,98.787L360,97.333L352,94.896L344,91.209L336,85.945L328,78.888L320,70.374L312,61.381L304,52.911L296,45.332L288,38.694L280,33.665L272,31.328L264,31.797L256,33.98L248,37.066L240,41.04L232,45.76L224,51.02L216,56.768L208,62.397L200,67.182L192,71.515L184,76.388L176,81.728L168,86.397L160,89.636L152,91.575L144,92.721L136,93.649L128,94.725L120,95.788L112,96.504L104,96.866L96,97.164L88,97.65L80,98.269L72,98.782L64,99.121L56,99.406L48,99.674L40,99.811L32,99.492L24,97.744L16,93.166L8,86.69L0,83.377Z" fill="#ffbb78"/></g></g><path class="foreground" aria-hidden="true" d="" display="none"/></g><g transform="translate(0,0)"><path class="background" aria-hidden="true" d="M0,0h400v100h-400Z"/><g><g class="mark-area role-mark marks" role="graphics-object" aria-roledescription="area mark container"><path aria-label="IMDB Rating: 0; density: 1.32980760134; Major_Genre: Concert/Performance" role="graphics-symbol" aria-roledescription="area mark" d="M0,88.697L8,90.949L16,95.353L24,98.47L32,99.672L40,99.929L48,99.903L56,99.782L64,99.618L72,99.416L80,99.139L88,98.838L96,98.65L104,98.573L112,98.415L120,98.01L128,97.392L136,96.802L144,96.398L152,95.956L160,94.985L168,93.081L176,90.271L184,87.059L192,83.932L200,80.814L208,77.322L216,73.465L224,69.575L232,65.612L240,61.371L248,57.143L256,53.367L264,50.289L272,48.547L280,49.064L288,51.895L296,56.263L304,61.831L312,68.658L320,76.063L328,82.831L336,88.266L344,92.373L352,95.387L360,97.495L368,98.825L376,99.54L384,99.855L392,99.965L400,99.994L400,99.994L392,99.965L384,99.855L376,99.54L368,98.827L360,97.503L352,95.42L344,92.454L336,88.392L328,82.957L320,76.144L312,68.691L304,61.84L296,56.264L288,51.896L280,49.068L272,48.566L264,50.352L256,53.507L248,57.357L240,61.603L232,65.794L224,69.683L216,73.536L208,77.412L200,80.942L192,84.058L184,87.14L176,90.304L168,93.09L160,94.986L152,95.956L144,96.398L136,96.802L128,97.392L120,98.01L112,98.415L104,98.573L96,98.65L88,98.838L80,99.139L72,99.416L64,99.618L56,99.782L48,99.903L40,99.929L32,99.676L24,98.488L16,95.408L8,91.055L0,88.83Z" fill="#98df8a"/></g></g><path class="foreground" aria-hidden="true" d="" display="none"/></g></g><g class="mark-group role-legend" role="graphics-symbol" aria-roledescription="legend" aria-label="Symbol legend titled 'Major_Genre' for fill color with 13 values: null, Action, Adventure, Black Comedy, Comedy, ending with Western"><g transform="translate(418,0)"><path class="background" aria-hidden="true" d="M0,0h122v183h-122Z" pointer-events="none"/><g><g class="mark-group role-legend-entry"><g transform="translate(0,16)"><path class="background" aria-hidden="true" d="M0,0h0v0h0Z" pointer-events="none"/><g><g class="mark-group role-scope" role="graphics-object" aria-roledescription="group mark container"><g transform="translate(0,0)"><path class="background" aria-hidden="true" d="M0,0h121.859375v11h-121.859375Z" pointer-events="none" opacity="1"/><g><g class="mark-symbol role-legend-symbol" pointer-events="none"><path transform="translate(6,6)" d="M5,0A5,5,0,1,1,-5,0A5,5,0,1,1,5,0" fill="#1f77b4" stroke-width="1.5" opacity="1"/></g><g class="mark-text role-legend-label" pointer-events="none"><text text-anchor="start" transform="translate(16,9)" font-family="sans-serif" font-size="10px" fill="#000" opacity="1">null</text></g></g><path class="foreground" aria-hidden="true" d="" pointer-events="none" display="none"/></g><g transform="translate(0,13)"><path class="background" aria-hidden="true" d="M0,0h121.859375v11h-121.859375Z" pointer-events="none" opacity="1"/><g><g class="mark-symbol role-legend-symbol" pointer-events="none"><path transform="translate(6,6)" d="M5,0A5,5,0,1,1,-5,0A5,5,0,1,1,5,0" fill="#aec7e8" stroke-width="1.5" opacity="1"/></g><g class="mark-text role-legend-label" pointer-events="none"><text text-anchor="start" transform="translate(16,9)" font-family="sans-serif" font-size="10px" fill="#000" opacity="1">Action</text></g></g><path class="foreground" aria-hidden="true" d="" pointer-events="none" display="none"/></g><g transform="translate(0,26)"><path class="background" aria-hidden="true" d="M0,0h121.859375v11h-121.859375Z" pointer-events="none" opacity="1"/><g><g class="mark-symbol role-legend-symbol" pointer-events="none"><path transform="translate(6,6)" d="M5,0A5,5,0,1,1,-5,0A5,5,0,1,1,5,0" fill="#ff7f0e" stroke-width="1.5" opacity="1"/></g><g class="mark-text role-legend-label" pointer-events="none"><text text-anchor="start" transform="translate(16,9)" font-family="sans-serif" font-size="10px" fill="#000" opacity="1">Adventure</text></g></g><path class="foreground" aria-hidden="true" d="" pointer-events="none" display="none"/></g><g transform="translate(0,39)"><path class="background" aria-hidden="true" d="M0,0h121.859375v11h-121.859375Z" pointer-events="none" opacity="1"/><g><g class="mark-symbol role-legend-symbol" pointer-events="none"><path transform="translate(6,6)" d="M5,0A5,5,0,1,1,-5,0A5,5,0,1,1,5,0" fill="#ffbb78" stroke-width="1.5" opacity="1"/></g><g class="mark-text role-legend-label" pointer-events="none"><text text-anchor="start" transform="translate(16,9)" font-family="sans-serif" font-size="10px" fill="#000" opacity="1">Black Comedy</text></g></g><path class="foreground" aria-hidden="true" d="" pointer-events="none" display="none"/></g><g transform="translate(0,52)"><path class="background" aria-hidden="true" d="M0,0h121.859375v11h-121.859375Z" pointer-events="none" opacity="1"/><g><g class="mark-symbol role-legend-symbol" pointer-events="none"><path transform="translate(6,6)" d="M5,0A5,5,0,1,1,-5,0A5,5,0,1,1,5,0" fill="#2ca02c" stroke-width="1.5" opacity="1"/></g><g class="mark-text role-legend-label" pointer-events="none"><text text-anchor="start" transform="translate(16,9)" font-family="sans-serif" font-size="10px" fill="#000" opacity="1">Comedy</text></g></g><path class="foreground" aria-hidden="true" d="" pointer-events="none" display="none"/></g><g transform="translate(0,65)"><path class="background" aria-hidden="true" d="M0,0h121.859375v11h-121.859375Z" pointer-events="none" opacity="1"/><g><g class="mark-symbol role-legend-symbol" pointer-events="none"><path transform="translate(6,6)" d="M5,0A5,5,0,1,1,-5,0A5,5,0,1,1,5,0" fill="#98df8a" stroke-width="1.5" opacity="1"/></g><g class="mark-text role-legend-label" pointer-events="none"><text text-anchor="start" transform="translate(16,9)" font-family="sans-serif" font-size="10px" fill="#000" opacity="1">Concert/Performance</text></g></g><path class="foreground" aria-hidden="true" d="" pointer-events="none" display="none"/></g><g transform="translate(0,78)"><path class="background" aria-hidden="true" d="M0,0h121.859375v11h-121.859375Z" pointer-events="none" opacity="1"/><g><g class="mark-symbol role-legend-symbol" pointer-events="none"><path transform="translate(6,6)" d="M5,0A5,5,0,1,1,-5,0A5,5,0,1,1,5,0" fill="#d62728" stroke-width="1.5" opacity="1"/></g><g class="mark-text role-legend-label" pointer-events="none"><text text-anchor="start" transform="translate(16,9)" font-family="sans-serif" font-size="10px" fill="#000" opacity="1">Documentary</text></g></g><path class="foreground" aria-hidden="true" d="" pointer-events="none" display="none"/></g><g transform="translate(0,91)"><path class="background" aria-hidden="true" d="M0,0h121.859375v11h-121.859375Z" pointer-events="none" opacity="1"/><g><g class="mark-symbol role-legend-symbol" pointer-events="none"><path transform="translate(6,6)" d="M5,0A5,5,0,1,1,-5,0A5,5,0,1,1,5,0" fill="#ff9896" stroke-width="1.5" opacity="1"/></g><g class="mark-text role-legend-label" pointer-events="none"><text text-anchor="start" transform="translate(16,9)" font-family="sans-serif" font-size="10px" fill="#000" opacity="1">Drama</text></g></g><path class="foreground" aria-hidden="true" d="" pointer-events="none" display="none"/></g><g transform="translate(0,104)"><path class="background" aria-hidden="true" d="M0,0h121.859375v11h-121.859375Z" pointer-events="none" opacity="1"/><g><g class="mark-symbol role-legend-symbol" pointer-events="none"><path transform="translate(6,6)" d="M5,0A5,5,0,1,1,-5,0A5,5,0,1,1,5,0" fill="#9467bd" stroke-width="1.5" opacity="1"/></g><g class="mark-text role-legend-label" pointer-events="none"><text text-anchor="start" transform="translate(16,9)" font-family="sans-serif" font-size="10px" fill="#000" opacity="1">Horror</text></g></g><path class="foreground" aria-hidden="true" d="" pointer-events="none" display="none"/></g><g transform="translate(0,117)"><path class="background" aria-hidden="true" d="M0,0h121.859375v11h-121.859375Z" pointer-events="none" opacity="1"/><g><g class="mark-symbol role-legend-symbol" pointer-events="none"><path transform="translate(6,6)" d="M5,0A5,5,0,1,1,-5,0A5,5,0,1,1,5,0" fill="#c5b0d5" stroke-width="1.5" opacity="1"/></g><g class="mark-text role-legend-label" pointer-events="none"><text text-anchor="start" transform="translate(16,9)" font-family="sans-serif" font-size="10px" fill="#000" opacity="1">Musical</text></g></g><path class="foreground" aria-hidden="true" d="" pointer-events="none" display="none"/></g><g transform="translate(0,130)"><path class="background" aria-hidden="true" d="M0,0h121.859375v11h-121.859375Z" pointer-events="none" opacity="1"/><g><g class="mark-symbol role-legend-symbol" pointer-events="none"><path transform="translate(6,6)" d="M5,0A5,5,0,1,1,-5,0A5,5,0,1,1,5,0" fill="#8c564b" stroke-width="1.5" opacity="1"/></g><g class="mark-text role-legend-label" pointer-events="none"><text text-anchor="start" transform="translate(16,9)" font-family="sans-serif" font-size="10px" fill="#000" opacity="1">Romantic Comedy</text></g></g><path class="foreground" aria-hidden="true" d="" pointer-events="none" display="none"/></g><g transform="translate(0,143)"><path class="background" aria-hidden="true" d="M0,0h121.859375v11h-121.859375Z" pointer-events="none" opacity="1"/><g><g class="mark-symbol role-legend-symbol" pointer-events="none"><path transform="translate(6,6)" d="M5,0A5,5,0,1,1,-5,0A5,5,0,1,1,5,0" fill="#c49c94" stroke-width="1.5" opacity="1"/></g><g class="mark-text role-legend-label" pointer-events="none"><text text-anchor="start" transform="translate(16,9)" font-family="sans-serif" font-size="10px" fill="#000" opacity="1">Thriller/Suspense</text></g></g><path class="foreground" aria-hidden="true" d="" pointer-events="none" display="none"/></g><g transform="translate(0,156)"><path class="background" aria-hidden="true" d="M0,0h121.859375v11h-121.859375Z" pointer-events="none" opacity="1"/><g><g class="mark-symbol role-legend-symbol" pointer-events="none"><path transform="translate(6,6)" d="M5,0A5,5,0,1,1,-5,0A5,5,0,1,1,5,0" fill="#e377c2" stroke-width="1.5" opacity="1"/></g><g class="mark-text role-legend-label" pointer-events="none"><text text-anchor="start" transform="translate(16,9)" font-family="sans-serif" font-size="10px" fill="#000" opacity="1">Western</text></g></g><path class="foreground" aria-hidden="true" d="" pointer-events="none" display="none"/></g></g></g><path class="foreground" aria-hidden="true" d="" pointer-events="none" display="none"/></g></g><g class="mark-text role-legend-title" pointer-events="none"><text text-anchor="start" transform="translate(0,9)" font-family="sans-serif" font-size="11px" font-weight="bold" fill="#000" opacity="1">Major_Genre</text></g></g><path class="foreground" aria-hidden="true" d="" pointer-events="none" display="none"/></g></g></g><path class="foreground" aria-hidden="true" d="" display="none"/></g></g></g></svg>