<svg xmlns="http://www.w3.org/2000/svg" xmlns:xlink="http://www.w3.org/1999/xlink" version="1.1" class="marks" width="319" height="242" viewBox="0 0 319 242"><rect width="319" height="242" fill="white"/><g fill="none" stroke-miterlimit="10" transform="translate(113,5)"><g class="mark-group role-frame root" role="graphics-object" aria-roledescription="group mark container"><g transform="translate(0,0)"><path class="background" aria-hidden="true" d="M0.5,0.5h200v200h-200Z" stroke="#ddd"/><g><g class="mark-group role-axis" aria-hidden="true"><g transform="translate(0.5,200.5)"><path class="background" aria-hidden="true" d="M0,0h0v0h0Z" pointer-events="none"/><g><g class="mark-rule role-axis-grid" pointer-events="none"><line transform="translate(9,0)" x2="0" y2="-200" stroke="#ddd" stroke-width="1" opacity="1"/><line transform="translate(55,0)" x2="0" y2="-200" stroke="#ddd" stroke-width="1" opacity="1"/><line transform="translate(100,0)" x2="0" y2="-200" stroke="#ddd" stroke-width="1" opacity="1"/><line transform="translate(145,0)" x2="0" y2="-200" stroke="#ddd" stroke-width="1" opacity="1"/><line transform="translate(191,0)" x2="0" y2="-200" stroke="#ddd" stroke-width="1" opacity="1"/></g></g><path class="foreground" aria-hidden="true" d="" pointer-events="none" display="none"/></g></g><g class="mark-group role-axis" role="graphics-symbol" aria-roledescription="axis" aria-label="X-axis titled 'Barley Yield' for a linear scale with values from 24 to 46"><g transform="translate(0.5,200.5)"><path class="background" aria-hidden="true" d="M0,0h0v0h0Z" pointer-events="none"/><g><g class="mark-rule role-axis-tick" pointer-events="none"><line transform="translate(9,0)" x2="0" y2="5" stroke="#888" stroke-width="1" opacity="1"/><line transform="translate(55,0)" x2="0" y2="5" stroke="#888" stroke-width="1" opacity="1"/><line transform="translate(100,0)" x2="0" y2="5" stroke="#888" stroke-width="1" opacity="1"/><line transform="translate(145,0)" x2="0" y2="5" stroke="#888" stroke-width="1" opacity="1"/><line transform="translate(191,0)" x2="0" y2="5" stroke="#888" stroke-width="1" opacity="1"/></g><g class="mark-text role-axis-label" pointer-events="none"><text text-anchor="middle" transform="translate(9.090909090909092,15)" font-family="sans-serif" font-size="10px" fill="#000" opacity="1">25</text><text text-anchor="middle" transform="translate(54.54545454545454,15)" font-family="sans-serif" font-size="10px" fill="#000" opacity="1">30</text><text text-anchor="middle" transform="translate(100,15)" font-family="sans-serif" font-size="10px" fill="#000" opacity="1">35</text><text text-anchor="middle" transform="translate(145.45454545454547,15)" font-family="sans-serif" font-size="10px" fill="#000" opacity="1">40</text><text text-anchor="middle" transform="translate(190.9090909090909,15)" font-family="sans-serif" font-size="10px" fill="#000" opacity="1">45</text></g><g class="mark-rule role-axis-domain" pointer-events="none"><line transform="translate(0,0)" x2="200" y2="0" stroke="#888" stroke-width="1" opacity="1"/></g><g class="mark-text role-axis-title" pointer-events="none"><text text-anchor="middle" transform="translate(100,30)" font-family="sans-serif" font-size="11px" font-weight="bold" fill="#000" opacity="1">Barley Yield</text></g></g><path class="foreground" aria-hidden="true" d="" pointer-events="none" display="none"/></g></g><g class="mark-group role-axis" role="graphics-symbol" aria-roledescription="axis" aria-label="Y-axis titled 'variety' for a discrete scale with 10 values: Glabron, Manchuria, No. 457, No. 462, No. 475, ending with Wisconsin No. 38"><g transform="translate(0.5,0.5)"><path class="background" aria-hidden="true" d="M0,0h0v0h0Z" pointer-events="none"/><g><g class="mark-rule role-axis-tick" pointer-events="none"><line transform="translate(0,10)" x2="-5" y2="0" stroke="#888" stroke-width="1" opacity="1"/><line transform="translate(0,30)" x2="-5" y2="0" stroke="#888" stroke-width="1" opacity="1"/><line transform="translate(0,50)" x2="-5" y2="0" stroke="#888" stroke-width="1" opacity="1"/><line transform="translate(0,70)" x2="-5" y2="0" stroke="#888" stroke-width="1" opacity="1"/><line transform="translate(0,90)" x2="-5" y2="0" stroke="#888" stroke-width="1" opacity="1"/><line transform="translate(0,110)" x2="-5" y2="0" stroke="#888" stroke-width="1" opacity="1"/><line transform="translate(0,130)" x2="-5" y2="0" stroke="#888" stroke-width="1" opacity="1"/><line transform="translate(0,150)" x2="-5" y2="0" stroke="#888" stroke-width="1" opacity="1"/><line transform="translate(0,170)" x2="-5" y2="0" stroke="#888" stroke-width="1" opacity="1"/><line transform="translate(0,190)" x2="-5" y2="0" stroke="#888" stroke-width="1" opacity="1"/></g><g class="mark-text role-axis-label" pointer-events="none"><text text-anchor="end" transform="translate(-7,12.5)" font-family="sans-serif" font-size="10px" fill="#000" opacity="1">Glabron</text><text text-anchor="end" transform="translate(-7,32.5)" font-family="sans-serif" font-size="10px" fill="#000" opacity="1">Manchuria</text><text text-anchor="end" transform="translate(-7,52.5)" font-family="sans-serif" font-size="10px" fill="#000" opacity="1">No. 457</text><text text-anchor="end" transform="translate(-7,72.5)" font-family="sans-serif" font-size="10px" fill="#000" opacity="1">No. 462</text><text text-anchor="end" transform="translate(-7,92.5)" font-family="sans-serif" font-size="10px" fill="#000" opacity="1">No. 475</text><text text-anchor="end" transform="translate(-7,112.5)" font-family="sans-serif" font-size="10px" fill="#000" opacity="1">Peatland</text><text text-anchor="end" transform="translate(-7,132.5)" font-family="sans-serif" font-size="10px" fill="#000" opacity="1">Svansota</text><text text-anchor="end" transform="translate(-7,152.5)" font-family="sans-serif" font-size="10px" fill="#000" opacity="1">Trebi</text><text text-anchor="end" transform="translate(-7,172.5)" font-family="sans-serif" font-size="10px" fill="#000" opacity="1">Velvet</text><text text-anchor="end" transform="translate(-7,192.5)" font-family="sans-serif" font-size="10px" fill="#000" opacity="1">Wisconsin No. 38</text></g><g class="mark-rule role-axis-domain" pointer-events="none"><line transform="translate(0,0)" x2="0" y2="200" stroke="#888" stroke-width="1" opacity="1"/></g><g class="mark-text role-axis-title" pointer-events="none"><text text-anchor="middle" transform="translate(-96.6201171875,100) rotate(-90) translate(0,-2)" font-family="sans-serif" font-size="11px" font-weight="bold" fill="#000" opacity="1">variety</text></g></g><path class="foreground" aria-hidden="true" d="" pointer-events="none" display="none"/></g></g><g class="mark-symbol role-mark layer_0_marks" role="graphics-object" aria-roledescription="symbol mark container"><path aria-label="Barley Yield: 31.46389; variety: Manchuria" role="graphics-symbol" aria-roledescription="point" transform="translate(67.85354545454545,30)" d="M2.739,0A2.739,2.739,0,1,1,-2.739,0A2.739,2.739,0,1,1,2.739,0" fill="black" stroke-width="2"/><path aria-label="Barley Yield: 33.3416658333; variety: Glabron" role="graphics-symbol" aria-roledescription="point" transform="translate(84.92423484848489,10)" d="M2.739,0A2.739,2.739,0,1,1,-2.739,0A2.739,2.739,0,1,1,2.739,0" fill="black" stroke-width="2"/><path aria-label="Barley Yield: 30.3777775; variety: Svansota" role="graphics-symbol" aria-roledescription="point" transform="translate(57.979795454545425,130)" d="M2.739,0A2.739,2.739,0,1,1,-2.739,0A2.739,2.739,0,1,1,2.739,0" fill="black" stroke-width="2"/><path aria-label="Barley Yield: 33.0611091667; variety: Velvet" role="graphics-symbol" aria-roledescription="point" transform="translate(82.3737196969697,170)" d="M2.739,0A2.739,2.739,0,1,1,-2.739,0A2.739,2.739,0,1,1,2.739,0" fill="black" stroke-width="2"/><path aria-label="Barley Yield: 39.3999933333; variety: Trebi" role="graphics-symbol" aria-roledescription="point" transform="translate(139.9999393939394,150)" d="M2.739,0A2.739,2.739,0,1,1,-2.739,0A2.739,2.739,0,1,1,2.739,0" fill="black" stroke-width="2"/><path aria-label="Barley Yield: 35.8472241667; variety: No. 457" role="graphics-symbol" aria-roledescription="point" transform="translate(107.70203787878792,50)" d="M2.739,0A2.739,2.739,0,1,1,-2.739,0A2.739,2.739,0,1,1,2.739,0" fill="black" stroke-width="2"/><path aria-label="Barley Yield: 35.3777808333; variety: No. 462" role="graphics-symbol" aria-roledescription="point" transform="translate(103.43437121212126,70)" d="M2.739,0A2.739,2.739,0,1,1,-2.739,0A2.739,2.739,0,1,1,2.739,0" fill="black" stroke-width="2"/><path aria-label="Barley Yield: 34.1805558333; variety: Peatland" role="graphics-symbol" aria-roledescription="point" transform="translate(92.55050757575766,110)" d="M2.739,0A2.739,2.739,0,1,1,-2.739,0A2.739,2.739,0,1,1,2.739,0" fill="black" stroke-width="2"/><path aria-label="Barley Yield: 31.7611108333; variety: No. 475" role="graphics-symbol" aria-roledescription="point" transform="translate(70.55555303030303,90)" d="M2.739,0A2.739,2.739,0,1,1,-2.739,0A2.739,2.739,0,1,1,2.739,0" fill="black" stroke-width="2"/><path aria-label="Barley Yield: 39.3944458333; variety: Wisconsin No. 38" role="graphics-symbol" aria-roledescription="point" transform="translate(139.9495075757576,190)" d="M2.739,0A2.739,2.739,0,1,1,-2.739,0A2.739,2.739,0,1,1,2.739,0" fill="black" stroke-width="2"/></g><g class="mark-rule role-mark layer_1_marks" role="graphics-object" aria-roledescription="rule mark container"><line aria-label="Barley Yield: 27.8329877917; variety: Manchuria; upper_yield: 35.3445152708; Ci1 of yield: 35.3445152708; Ci0 of yield: 27.8329877917; Mean of yield: 31.46389" role="graphics-symbol" aria-roledescription="errorbar" transform="translate(34.84534356060607,30)" x2="68.28661344696975" y2="0" stroke="black"/><line aria-label="Barley Yield: 27.8790296875; variety: Glabron; upper_yield: 39.1538886042; Ci1 of yield: 39.1538886042; Ci0 of yield: 27.8790296875; Mean of yield: 33.3416658333" role="graphics-symbol" aria-roledescription="errorbar" transform="translate(35.26390625000004,10)" x2="102.49871742424244" y2="0" stroke="black"/><line aria-label="Barley Yield: 25.2761108542; variety: Svansota; upper_yield: 35.2337511042; Ci1 of yield: 35.2337511042; Ci0 of yield: 25.2761108542; Mean of yield: 30.3777775" role="graphics-symbol" aria-roledescription="errorbar" transform="translate(11.60100776515152,130)" x2="90.52400227272724" y2="0" stroke="black"/><line aria-label="Barley Yield: 28.6849972292; variety: Velvet; upper_yield: 37.3399969583; Ci1 of yield: 37.3399969583; Ci0 of yield: 28.6849972292; Mean of yield: 33.0611091667" role="graphics-symbol" aria-roledescription="errorbar" transform="translate(42.59088390151517,170)" x2="78.681815719697" y2="0" stroke="black"/><line aria-label="Barley Yield: 33.3518697917; variety: Trebi; upper_yield: 45.9530427292; Ci1 of yield: 45.9530427292; Ci0 of yield: 33.3518697917; Mean of yield: 39.3999933333" role="graphics-symbol" aria-roledescription="errorbar" transform="translate(85.01699810606065,150)" x2="114.55611761363632" y2="0" stroke="black"/><line aria-label="Barley Yield: 30.1347241875; variety: No. 457; upper_yield: 41.9764608125; Ci1 of yield: 41.9764608125; Ci0 of yield: 30.1347241875; Mean of yield: 35.8472241667" role="graphics-symbol" aria-roledescription="errorbar" transform="translate(55.77021988636365,50)" x2="107.65215113636357" y2="0" stroke="black"/><line aria-label="Barley Yield: 28.6942367083; variety: No. 462; upper_yield: 43.3877861042; Ci1 of yield: 43.3877861042; Ci0 of yield: 28.6942367083; Mean of yield: 35.3777808333" role="graphics-symbol" aria-roledescription="errorbar" transform="translate(42.674879166666685,70)" x2="133.57772178030302" y2="0" stroke="black"/><line aria-label="Barley Yield: 30.5587505625; variety: Peatland; upper_yield: 37.9476375; Ci1 of yield: 37.9476375; Ci0 of yield: 30.5587505625; Mean of yield: 34.1805558333" role="graphics-symbol" aria-roledescription="errorbar" transform="translate(59.625005113636355,110)" x2="67.1716994318181" y2="0" stroke="black"/><line aria-label="Barley Yield: 26.3190969375; variety: No. 475; upper_yield: 37.3240264167; Ci1 of yield: 37.3240264167; Ci0 of yield: 26.3190969375; Mean of yield: 31.7611108333" role="graphics-symbol" aria-roledescription="errorbar" transform="translate(21.082699431818178,90)" x2="100.04481344696973" y2="0" stroke="black"/><line aria-label="Barley Yield: 33.052083875; variety: Wisconsin No. 38; upper_yield: 45.8611125208; Ci1 of yield: 45.8611125208; Ci0 of yield: 33.052083875; Mean of yield: 39.3944458333" role="graphics-symbol" aria-roledescription="errorbar" transform="translate(82.29167159090903,190)" x2="116.44571496212126" y2="0" stroke="black"/></g></g><path class="foreground" aria-hidden="true" d="" display="none"/></g></g></g></svg>